<svg xmlns="http://www.w3.org/2000/svg" xmlns:xlink="http://www.w3.org/1999/xlink" width="186.353" height="250.703" viewBox="0 0 186.353 250.703">
  <defs>
    <clipPath id="clip-path">
      <path id="Trazado_57" data-name="Trazado 57" d="M399.528,563.071a86.183,86.183,0,0,1-166.15,0H227.32a92.038,92.038,0,0,0,178.237,0ZM281.962,447.963c13.229-13.258,25.7-25.7,32.809-39.394l1.727-3.307,1.727,3.307c7.053,13.521,19.375,25.843,32.428,38.9l.5.5c15.8,15.863,32.867,33.013,42.877,54.232h6.439c-10.185-23.3-28.477-41.589-45.276-58.388l-.059-.029C339,427.622,323.785,412.4,319.395,395.6l-2.868-10.624-2.81,10.624c-4.507,16.917-19.755,32.165-35.911,48.32-16.858,16.8-35.179,35.033-45.364,58.271h6.439C248.919,480.889,266.128,463.738,281.962,447.963Z" transform="translate(-227.32 -384.98)" fill="none"/>
    </clipPath>
    <linearGradient id="linear-gradient" y1="0.5" x2="1" y2="0.5" gradientUnits="objectBoundingBox">
      <stop offset="0" stop-color="#98cc27"/>
      <stop offset="1" stop-color="#44b2e2"/>
    </linearGradient>
  </defs>
  <g id="Grupo_39" data-name="Grupo 39" transform="translate(-225.949 -384.01)">
    <g id="Grupo_1" data-name="Grupo 1" transform="translate(225.949 507.772)">
      <g id="layer2" transform="translate(0 0)">
        <g id="g3501">
          <g id="path2985" transform="translate(167.689 12.19)">
            <path id="Trazado_1" data-name="Trazado 1" d="M301.048,440.442h-.738v-9.184c0-.059-.029-.114-.029-.173v-.026c0-.029,0-.029-.029-.058v-.027c-.026-.029-.026-.029-.026-.058l-.059-.056a.28.28,0,0,0-.17-.14.7.7,0,0,0-.539-.2h-1.645l-7.879-.059H288.32a1.079,1.079,0,0,0-.512.144.138.138,0,0,0-.111.056.444.444,0,0,1-.085.114l-.029.029a.027.027,0,0,1-.029.026c0,.029,0,.029-.026.059v.026a.029.029,0,0,1-.029.029v.029a.1.1,0,0,1-.029.056v9.413h-.937c-.026.029-.026.029-.056.029s-.056.026-.085.026h-.029c-.026.029-.026.029-.056.029-.056.029-.085.056-.14.085a.1.1,0,0,1-.059.029.06.06,0,0,1-.056.056c0,.029-.029.029-.029.056a.029.029,0,0,0-.029.029s0,.029-.026.029a.088.088,0,0,1-.029.056c-.029.029-.029.085-.056.143v.055a.081.081,0,0,1-.029.056v.058l.114,26.306.026,1.191v.284h.881a1.223,1.223,0,0,0,.454-.114.722.722,0,0,0,.339-.369v-.029h.029c0-.026.026-.055,0-.085a.318.318,0,0,0,.026-.14v-.454H287.7l-.114-25.855h.738a.815.815,0,0,0,.849-.735v-9.243l9.442.056v9.187a.8.8,0,0,0,.849.735h.737v27.979h1.7V441.18A.779.779,0,0,0,301.048,440.442ZM287.7,467.769l-.313-.14a.676.676,0,0,0-.255-.115l-1.106-.483v.454h-2.778l1.5.653,1.247.539h.029v.284h.852a1.223,1.223,0,0,0,.454-.114.722.722,0,0,0,.339-.369v-.029h.029c0-.026.026-.055,0-.085a.318.318,0,0,0,.026-.14v-.454Z" transform="translate(-283.245 -430.462)" fill="#fff"/>
          </g>
          <g id="path3805" transform="translate(170.306 22.164)">
            <path id="Trazado_2" data-name="Trazado 2" d="M300.186,434.608a.8.8,0,0,1-.858.738H285a.807.807,0,0,1-.86-.735v0l0-.056.009-.058,0-.021.006-.02a.618.618,0,0,1,.064-.164l.029-.047.023-.032.02-.026.038-.044.056-.053.061-.05a1.046,1.046,0,0,1,.138-.079l.038-.015.026-.012c.032-.012.064-.023.1-.032l.056-.012.029-.006.059-.006.038,0,.067,0h14.329A.8.8,0,0,1,300.186,434.608Z" transform="translate(-284.139 -433.87)" fill="#fff"/>
          </g>
          <g id="path3809" transform="translate(171.899 6.881)">
            <path id="Trazado_3" data-name="Trazado 3" d="M296.691,435.6a.893.893,0,0,1-.729-.348l-3.729-5.13h-2.239l-3.729,5.066a.938.938,0,0,1-1.182.228.679.679,0,0,1-.266-1.018l3.98-5.408a.9.9,0,0,1,.726-.343h3.184a.907.907,0,0,1,.729.345l3.98,5.479a.679.679,0,0,1-.272,1.016A.966.966,0,0,1,296.691,435.6Z" transform="translate(-284.683 -428.648)" fill="#fff"/>
          </g>
          <g id="path3813" transform="translate(175.852 0.029)">
            <path id="Trazado_4" data-name="Trazado 4" d="M290.91,427.7a1.856,1.856,0,0,0-.65-.881,2.008,2.008,0,0,0-.737-.366,3.755,3.755,0,0,0-1.021-.143,3.386,3.386,0,0,0-.992.143,2.008,2.008,0,0,0-.738.366,1.685,1.685,0,0,0-.65.881,3.467,3.467,0,0,0-.088.793l.029.313v5.242c0,.284.4.512.852.512h3.2c.454,0,.852-.228.852-.512V428.8l.029-.313A3.467,3.467,0,0,0,290.91,427.7Zm-1.671,5.839h-1.475v-4.791l-.026-.284a1.651,1.651,0,0,1,.085-.565.667.667,0,0,1,.284-.427.707.707,0,0,1,.141-.085c.056,0,.17-.026.255-.026.114,0,.2.026.284.026a.708.708,0,0,1,.141.085.666.666,0,0,1,.284.427,1.2,1.2,0,0,1,.059.565l-.029.284Z" transform="translate(-286.034 -426.307)" fill="#fff"/>
          </g>
          <g id="path3837" transform="translate(92.279 40.991)">
            <path id="Trazado_5" data-name="Trazado 5" d="M337.382,449.256a.693.693,0,0,1-.038.219h0a.773.773,0,0,1-.377.413.945.945,0,0,1-.442.105H275.637l-17.259-8.1-.451-.211a.686.686,0,0,1-.342-1,.8.8,0,0,1,.138-.161.945.945,0,0,1,.656-.222,1,1,0,0,1,.372.091l.284.132,13.574,6.369,1.715.8.992.466.758.354h60.451a.851.851,0,0,1,.817.515h0A.627.627,0,0,1,337.382,449.256Z" transform="translate(-257.479 -440.303)" fill="#fff"/>
          </g>
          <g id="path3855" transform="translate(110.114 40.307)">
            <path id="Trazado_6" data-name="Trazado 6" d="M264.431,447.023a.914.914,0,0,1-.263-.038.722.722,0,0,1-.553-.928l.325-.857.012-.032a10.892,10.892,0,0,1,1.147-2.014,7.939,7.939,0,0,1,2.189-2.09,6.623,6.623,0,0,1,1.586-.72,6.805,6.805,0,0,1,1.929-.275h4.776a6.785,6.785,0,0,1,1.926.275,6.643,6.643,0,0,1,1.589.72,7.966,7.966,0,0,1,2.186,2.09,10.571,10.571,0,0,1,1.147,2.014q.149.342.263.667c.023.062.044.126.064.19l.017.053,0,.009a.513.513,0,0,1,.023.108.44.44,0,0,1,.006.088.8.8,0,0,1-.857.738.838.838,0,0,1-.837-.574l-.009-.029-.053-.155c-.064-.184-.14-.378-.228-.577a9.341,9.341,0,0,0-.995-1.75,6.319,6.319,0,0,0-1.741-1.677,4.666,4.666,0,0,0-2.505-.714H270.8a4.651,4.651,0,0,0-1.364.2,4.768,4.768,0,0,0-1.144.518,6.356,6.356,0,0,0-1.741,1.677,9.192,9.192,0,0,0-.986,1.736l-.319.84A.856.856,0,0,1,264.431,447.023Z" transform="translate(-263.573 -440.069)" fill="#fff"/>
          </g>
          <g id="path3857" transform="translate(116.484 36.198)">
            <path id="Trazado_7" data-name="Trazado 7" d="M271.386,444.249a.8.8,0,0,1-.857-.738v-3.369h-3.061v3.369a.869.869,0,0,1-1.718,0V439.4a.806.806,0,0,1,.858-.738h4.779a.8.8,0,0,1,.858.738v4.109A.8.8,0,0,1,271.386,444.249Z" transform="translate(-265.749 -438.665)" fill="#fff"/>
          </g>
          <g id="path3861" transform="translate(116.485 32.091)">
            <path id="Trazado_8" data-name="Trazado 8" d="M266.609,442.847l-.044,0a.787.787,0,0,1-.814-.772l.035-.644,0-.023a8.114,8.114,0,0,1,.284-1.531,4.362,4.362,0,0,1,.855-1.674,2.727,2.727,0,0,1,4.135,0,4.359,4.359,0,0,1,.855,1.674,8.37,8.37,0,0,1,.284,1.531c.018.17.029.339.035.5l0,.132,0,.058v.009a.867.867,0,0,1-1.715,0h0v-.012h0v.012l0-.032,0-.117c-.006-.138-.015-.284-.029-.43a7.02,7.02,0,0,0-.24-1.294,2.967,2.967,0,0,0-.562-1.15,1.1,1.1,0,0,0-.333-.267.89.89,0,0,0-.723,0,1.063,1.063,0,0,0-.333.267,2.967,2.967,0,0,0-.562,1.15,6.975,6.975,0,0,0-.237,1.282l-.038.629A.812.812,0,0,1,266.609,442.847Z" transform="translate(-265.75 -437.262)" fill="#fff"/>
          </g>
          <g id="path3865" transform="translate(118.872 27.982)">
            <path id="Trazado_9" data-name="Trazado 9" d="M267.425,441.442a.807.807,0,0,1-.86-.737V436.6a.869.869,0,0,1,1.718,0v4.11A.806.806,0,0,1,267.425,441.442Z" transform="translate(-266.565 -435.858)" fill="#fff"/>
          </g>
          <g id="path3869" transform="translate(150.003 46.599)">
            <path id="Trazado_10" data-name="Trazado 10" d="M278.92,442.219v3a.869.869,0,0,1-1.718,0v-2.74Z" transform="translate(-277.202 -442.219)" fill="#fff"/>
            <g id="path3869-2" data-name="path3869" transform="translate(17.516)">
              <path id="Trazado_11" data-name="Trazado 11" d="M284.9,442.219v3a.869.869,0,0,1-1.718,0v-2.74Z" transform="translate(-283.187 -442.219)" fill="#fff"/>
            </g>
          </g>
          <g id="path3871" transform="translate(150.006 40.649)">
            <path id="Trazado_12" data-name="Trazado 12" d="M295.574,447.137a.844.844,0,0,1-.837-.574l-.006-.026-.056-.158c-.064-.184-.14-.378-.228-.577a9.326,9.326,0,0,0-.992-1.75,6.365,6.365,0,0,0-1.744-1.677,4.821,4.821,0,0,0-1.142-.521,4.748,4.748,0,0,0-1.364-.193h-4.776a4.766,4.766,0,0,0-1.364.193,4.826,4.826,0,0,0-1.141.521,6.363,6.363,0,0,0-1.744,1.677,9.322,9.322,0,0,0-.992,1.75c-.088.2-.164.392-.228.577l-.053.155-.012.038a.842.842,0,0,1-.834.565.8.8,0,0,1-.857-.738.7.7,0,0,1,.018-.158l.008-.029.021-.067c.023-.067.044-.129.067-.193q.114-.325.263-.667a10.727,10.727,0,0,1,1.144-2.014,7.979,7.979,0,0,1,2.189-2.09,6.643,6.643,0,0,1,1.589-.72,6.779,6.779,0,0,1,1.926-.275h4.776a6.765,6.765,0,0,1,1.926.275,6.644,6.644,0,0,1,1.589.72,7.983,7.983,0,0,1,2.189,2.09,10.732,10.732,0,0,1,1.144,2.014c.1.228.19.451.263.667.023.062.047.126.067.193l.015.053.006.014.006.015a.7.7,0,0,1,.023.173A.807.807,0,0,1,295.574,447.137Z" transform="translate(-277.203 -440.186)" fill="#fff"/>
          </g>
          <g id="path3873" transform="translate(156.375 36.54)">
            <path id="Trazado_13" data-name="Trazado 13" d="M285.013,444.366a.8.8,0,0,1-.858-.738v-3.372h-3.061v3.372a.867.867,0,0,1-1.715,0v-4.109a.8.8,0,0,1,.858-.737h4.776a.8.8,0,0,1,.857.737v4.109A.8.8,0,0,1,285.013,444.366Z" transform="translate(-279.379 -438.782)" fill="#fff"/>
          </g>
          <g id="path3875" transform="translate(156.378 32.431)">
            <path id="Trazado_14" data-name="Trazado 14" d="M285.845,441.546a.029.029,0,0,1-.029-.029,6.384,6.384,0,0,0-.284-1.531,3.891,3.891,0,0,0-.849-1.671,2.348,2.348,0,0,0-.852-.652,1.724,1.724,0,0,0-.339-.141,2.92,2.92,0,0,0-.881-.144,2.882,2.882,0,0,0-.849.144,1.592,1.592,0,0,0-.339.141,2.446,2.446,0,0,0-.881.652,4.643,4.643,0,0,0-.849,1.671,7.987,7.987,0,0,0-.284,1.531c0,.17-.029.339-.029.512v.225a.816.816,0,0,0,.852.708.8.8,0,0,0,.849-.738V442.2c0-.059,0-.085.029-.114a2.515,2.515,0,0,1,.029-.453v-.141a6.235,6.235,0,0,1,.225-1.136,3.187,3.187,0,0,1,.568-1.162,1.281,1.281,0,0,1,.339-.254.589.589,0,0,1,.339-.085h.029a.721.721,0,0,1,.34.085,1.293,1.293,0,0,1,.342.254,3.734,3.734,0,0,1,.565,1.162,10.312,10.312,0,0,1,.228,1.136v.141l.029.623a.841.841,0,0,0,.878.708h.026a.809.809,0,0,0,.823-.738V442.2Z" transform="translate(-279.38 -437.378)" fill="#fff"/>
          </g>
          <g id="path3877" transform="translate(158.763 28.325)">
            <path id="Trazado_15" data-name="Trazado 15" d="M281.052,441.559a.8.8,0,0,1-.857-.738v-4.109a.867.867,0,0,1,1.715,0v4.109A.8.8,0,0,1,281.052,441.559Z" transform="translate(-280.195 -435.975)" fill="#fff"/>
          </g>
          <g id="path3891" transform="translate(130.02 36.198)">
            <path id="Trazado_16" data-name="Trazado 16" d="M288.748,445.619a.841.841,0,0,1-.837-.574l-.009-.032-.053-.152c-.064-.185-.141-.381-.228-.577a9.241,9.241,0,0,0-1-1.75,6.275,6.275,0,0,0-1.741-1.677,4.6,4.6,0,0,0-1.142-.521,4.769,4.769,0,0,0-1.364-.193H277.6a4.758,4.758,0,0,0-1.364.193,4.6,4.6,0,0,0-1.141.521,6.365,6.365,0,0,0-1.744,1.677,9.241,9.241,0,0,0-1,1.75c-.085.2-.161.392-.228.577l-.053.155-.009.032a.844.844,0,0,1-.837.571.806.806,0,0,1-.857-.737.628.628,0,0,1,.018-.146l.015-.055.018-.056c.021-.064.044-.129.064-.193.076-.214.167-.439.266-.664a10.66,10.66,0,0,1,1.144-2.017,7.885,7.885,0,0,1,2.189-2.087,6.4,6.4,0,0,1,1.586-.72,6.7,6.7,0,0,1,1.929-.278h4.777a6.68,6.68,0,0,1,1.926.278,6.414,6.414,0,0,1,1.589.72,7.965,7.965,0,0,1,2.189,2.087,10.65,10.65,0,0,1,1.144,2.017c.1.225.187.451.263.664.023.064.044.129.064.193l.018.05,0,.009c.009.032.018.065.023.1s.006.068.006.1A.8.8,0,0,1,288.748,445.619Z" transform="translate(-270.374 -438.665)" fill="#fff"/>
          </g>
          <g id="path3893" transform="translate(136.388 32.091)">
            <path id="Trazado_17" data-name="Trazado 17" d="M278.187,442.847a.8.8,0,0,1-.858-.741v-3.369h-3.061v3.369a.868.868,0,0,1-1.718,0V438a.807.807,0,0,1,.86-.738h4.776a.8.8,0,0,1,.857.738v4.106A.8.8,0,0,1,278.187,442.847Z" transform="translate(-272.55 -437.262)" fill="#fff"/>
          </g>
          <g id="path3895" transform="translate(136.394 27.979)">
            <path id="Trazado_18" data-name="Trazado 18" d="M278.985,440a6.369,6.369,0,0,0-.281-1.534,3.932,3.932,0,0,0-.852-1.671,2.358,2.358,0,0,0-.852-.653,1.77,1.77,0,0,0-.34-.14,2.679,2.679,0,0,0-1.73,0,1.935,1.935,0,0,0-.339.14,2.47,2.47,0,0,0-.878.653,4.7,4.7,0,0,0-.852,1.671,8.458,8.458,0,0,0-.284,1.534c0,.17-.026.339-.026.509v.225a.813.813,0,0,0,.849.711.8.8,0,0,0,.852-.737v-.029c0-.056,0-.085.029-.114a2.789,2.789,0,0,1,.026-.454v-.141a6.33,6.33,0,0,1,.228-1.135,3.19,3.19,0,0,1,.565-1.162,1.432,1.432,0,0,1,.343-.254.755.755,0,0,1,.339-.085.723.723,0,0,1,.369.085,1.423,1.423,0,0,1,.339.254,3.67,3.67,0,0,1,.568,1.162,10.01,10.01,0,0,1,.225,1.135v.141a2.53,2.53,0,0,1,.029.454v.144a.829.829,0,0,0,.878.737.82.82,0,0,0,.852-.737v-.2C279.014,440.338,279.014,440.168,278.985,440Z" transform="translate(-272.552 -435.857)" fill="#fff"/>
          </g>
          <g id="path3897" transform="translate(138.779 23.876)">
            <path id="Trazado_19" data-name="Trazado 19" d="M274.224,440.036a.8.8,0,0,1-.857-.738v-4.106a.867.867,0,0,1,1.715,0V439.3A.8.8,0,0,1,274.224,440.036Z" transform="translate(-273.367 -434.455)" fill="#fff"/>
          </g>
          <g id="path3911" transform="translate(92.28 22.507)">
            <path id="Trazado_20" data-name="Trazado 20" d="M273.465,447.1a.843.843,0,0,1-.831-.562l-.521-1.8a19.127,19.127,0,0,0-1.794-3.849,14.459,14.459,0,0,0-1.5-2.034,11.276,11.276,0,0,0-1.937-1.738,9.115,9.115,0,0,0-2.406-1.2,9.492,9.492,0,0,0-2.95-.454h-3.187a.746.746,0,1,1,0-1.475h3.187a11.527,11.527,0,0,1,3.559.547,10.928,10.928,0,0,1,2.877,1.434,12.823,12.823,0,0,1,2.221,1.99,16.123,16.123,0,0,1,1.654,2.239,20.673,20.673,0,0,1,1.932,4.138l.009.029.524,1.82a.737.737,0,0,1-.629.893A.976.976,0,0,1,273.465,447.1Z" transform="translate(-257.479 -433.987)" fill="#fff"/>
          </g>
          <g id="path3913" transform="translate(92.28 17.028)">
            <path id="Trazado_21" data-name="Trazado 21" d="M260.725,439.069a.806.806,0,0,1-.858-.737V433.59h-1.531a.746.746,0,1,1,0-1.475h2.388a.807.807,0,0,1,.86.738v5.479A.807.807,0,0,1,260.725,439.069Z" transform="translate(-257.479 -432.115)" fill="#fff"/>
          </g>
          <g id="path3915" transform="translate(92.28 12.922)">
            <path id="Trazado_22" data-name="Trazado 22" d="M260.725,436.293a.81.81,0,0,1-.855-.7l-.038-.629a7.026,7.026,0,0,0-.237-1.285,2.978,2.978,0,0,0-.562-1.147,1.133,1.133,0,0,0-.334-.266.848.848,0,0,0-.363-.079.746.746,0,1,1,0-1.475,2.663,2.663,0,0,1,2.069.937,4.358,4.358,0,0,1,.855,1.674,8.382,8.382,0,0,1,.284,1.531v.023l.038.644a.789.789,0,0,1-.814.772Z" transform="translate(-257.479 -430.712)" fill="#fff"/>
          </g>
          <g id="path3917" transform="translate(92.28 8.812)">
            <path id="Trazado_23" data-name="Trazado 23" d="M258.337,434.892a.8.8,0,0,1-.858-.738v-4.109a.867.867,0,0,1,1.715,0v4.109A.8.8,0,0,1,258.337,434.892Z" transform="translate(-257.479 -429.308)" fill="#fff"/>
          </g>
          <g id="path4111" transform="translate(0.012 12.19)">
            <path id="Trazado_24" data-name="Trazado 24" d="M241.828,467.485v-.454m-1.671,1.417c0-.026-.029-.055,0-.085v-.369l.111-26.08h-.734a.818.818,0,0,1-.852-.735v-9.243l-9.439.056v9.187a.8.8,0,0,1-.852.735h-.737v27.979h-1.7V441.18a.78.78,0,0,1,.852-.737h.734v-9.3a.1.1,0,0,0,.029-.059v-.026c0-.029,0-.029.029-.058v-.027c.026-.029.026-.029.026-.058a.027.027,0,0,0,.029-.026l.029-.029c.056-.055.085-.114.17-.14a.7.7,0,0,1,.538-.2h1.645l7.879-.059h1.619a1.068,1.068,0,0,1,.509.144.158.158,0,0,1,.114.056.345.345,0,0,0,.085.114l.026.029a.027.027,0,0,0,.029.026c0,.029,0,.029.029.059v.026l.026.029v.029a.1.1,0,0,0,.029.056v.114c.029.029.029.029.029.055v9.243h.907a.162.162,0,0,0,.111.029l.029.026c.029,0,.059,0,.059.029h.026c.029.029.085.029.114.056l.029.029c.026,0,.026.029.056.029,0,.026,0,.026.029.026,0,.029.026.029.026.059.029,0,.029.026.058.026a.134.134,0,0,0,.056.085v.059c.029,0,.029,0,.029.026v.029c.026.029.026.029.026.059v.026c0,.029,0,.029.029.059v.085l-.114,26.306-.026,1.361v.114m-.029-.284v.284h-.852a1.192,1.192,0,0,1-.451-.114.7.7,0,0,1-.369-.4c0-.026-.029-.055,0-.085a.291.291,0,0,1-.029-.14v-.454" transform="translate(-225.953 -430.462)" fill="#fff"/>
          </g>
          <g id="path4121" transform="translate(0 22.164)">
            <path id="Trazado_25" data-name="Trazado 25" d="M242,434.608v0a.8.8,0,0,1-.858.735H226.809a.746.746,0,1,1,0-1.475h14.329l.067,0,.038,0,.026,0,.026,0h0l.032.006a.576.576,0,0,1,.1.026l.044.015.064.026.026.012a.88.88,0,0,1,.091.05l.047.032.038.032.035.032.038.035.044.053a.465.465,0,0,1,.053.079l.02.041.018.032.015.044.015.041.006.035.009.05,0,.024Z" transform="translate(-225.949 -433.87)" fill="#fff"/>
          </g>
          <g id="path4123" transform="translate(1.593 6.881)">
            <path id="Trazado_26" data-name="Trazado 26" d="M227.35,435.6a.966.966,0,0,1-.454-.114.679.679,0,0,1-.272-1.016l3.98-5.479a.907.907,0,0,1,.729-.345h3.184a.9.9,0,0,1,.726.343l3.98,5.408a.679.679,0,0,1-.266,1.018.938.938,0,0,1-1.183-.228l-3.729-5.066h-2.239l-3.729,5.13A.893.893,0,0,1,227.35,435.6Z" transform="translate(-226.493 -428.648)" fill="#fff"/>
          </g>
          <g id="path4125" transform="translate(5.54)">
            <path id="Trazado_27" data-name="Trazado 27" d="M232.718,427.687a1.807,1.807,0,0,0-.623-.878,2.421,2.421,0,0,0-.767-.369,3.487,3.487,0,0,0-.992-.143,3.87,3.87,0,0,0-1.021.143,2,2,0,0,0-.735.369,1.627,1.627,0,0,0-.626.878,2.443,2.443,0,0,0-.111.793.835.835,0,0,0,.026.255v5.329c0,.284.4.512.881.512h3.173c.483,0,.852-.228.852-.512v-5.329a.754.754,0,0,0,.029-.255A2.526,2.526,0,0,0,232.718,427.687Zm-1.645,5.839H229.6v-4.817l-.026-.029v-.225a1.259,1.259,0,0,1,.056-.568.66.66,0,0,1,.284-.424.5.5,0,0,1,.141-.085.852.852,0,0,1,.284-.029.681.681,0,0,1,.255.029l.17.085a.781.781,0,0,1,.258.424,1.863,1.863,0,0,1,.085.568c0,.056-.029.111-.029.2v4.876Z" transform="translate(-227.842 -426.297)" fill="#fff"/>
          </g>
          <g id="path4137" transform="translate(14.174 40.991)">
            <path id="Trazado_28" data-name="Trazado 28" d="M310.247,441.688l-.451.211-17.259,8.1H231.65a.944.944,0,0,1-.442-.105.762.762,0,0,1-.378-.413.66.66,0,0,1,0-.442.858.858,0,0,1,.819-.515H292.1l.758-.354.989-.466,1.718-.8,13.574-6.369.284-.132a1,1,0,0,1,.372-.091.945.945,0,0,1,.656.222.8.8,0,0,1,.138.161A.686.686,0,0,1,310.247,441.688Z" transform="translate(-230.792 -440.303)" fill="#fff"/>
          </g>
          <g id="path4141" transform="translate(57.018 40.313)">
            <path id="Trazado_29" data-name="Trazado 29" d="M264.625,446.109v-.029c0-.029,0-.029-.029-.055a.55.55,0,0,0-.055-.2c-.088-.2-.173-.424-.258-.653a9.2,9.2,0,0,0-1.162-2.01,7.6,7.6,0,0,0-2.183-2.1,5.579,5.579,0,0,0-1.586-.708,4.551,4.551,0,0,0-1.077-.228,4.377,4.377,0,0,0-.852-.056H252.66a4.514,4.514,0,0,0-.878.056,4.317,4.317,0,0,0-1.048.228,5.29,5.29,0,0,0-1.589.708,8.035,8.035,0,0,0-2.21,2.1,10.482,10.482,0,0,0-1.136,2.01,3.722,3.722,0,0,0-.255.653c-.029.056-.056.14-.085.2v.085c-.029,0-.029,0-.029.029v.14a.68.68,0,0,0,.085.34.938.938,0,0,0,.767.4.828.828,0,0,0,.822-.539v-.029l.026-.029a.407.407,0,0,1,.059-.17c.056-.17.14-.369.225-.565,0-.059.029-.088.059-.143a8.247,8.247,0,0,1,.934-1.615,6.42,6.42,0,0,1,1.73-1.671,5,5,0,0,1,1.136-.512,4.6,4.6,0,0,1,1.387-.2h4.762a4.305,4.305,0,0,1,1.361.2,4.11,4.11,0,0,1,1.136.512,6.069,6.069,0,0,1,1.756,1.671,12.485,12.485,0,0,1,.937,1.615c.029.056.029.085.056.143.085.2.17.4.228.565.026.059.026.114.056.17v.029c.029.029.029.029.029.056s.029.058.056.114a.875.875,0,0,0,.767.4.9.9,0,0,0,.369-.085.7.7,0,0,0,.48-.568v-.2A.105.105,0,0,0,264.625,446.109Z" transform="translate(-245.431 -440.071)" fill="#fff"/>
          </g>
          <g id="path4143" transform="translate(63.378 36.198)">
            <path id="Trazado_30" data-name="Trazado 30" d="M253.238,444.249a.806.806,0,0,1-.858-.738v-3.369h-3.061v3.369a.867.867,0,0,1-1.715,0V439.4a.8.8,0,0,1,.857-.738h4.776a.807.807,0,0,1,.86.738v4.109A.807.807,0,0,1,253.238,444.249Z" transform="translate(-247.604 -438.665)" fill="#fff"/>
          </g>
          <g id="path4145" transform="translate(63.378 32.091)">
            <path id="Trazado_31" data-name="Trazado 31" d="M248.462,442.847a.8.8,0,0,1-.857-.741v-.059l.006-.143c.006-.161.018-.331.035-.5a8.156,8.156,0,0,1,.284-1.531,4.324,4.324,0,0,1,.855-1.674,2.727,2.727,0,0,1,4.135,0,4.381,4.381,0,0,1,.855,1.674,8.378,8.378,0,0,1,.284,1.531c.015.17.029.339.035.5l0,.143,0,.044v.012a.869.869,0,0,1-1.718,0v-.032l0-.117c-.006-.138-.018-.284-.029-.43a7.023,7.023,0,0,0-.24-1.294,2.97,2.97,0,0,0-.562-1.15,1.133,1.133,0,0,0-.334-.267.9.9,0,0,0-.726,0,1.087,1.087,0,0,0-.331.267,2.966,2.966,0,0,0-.562,1.15,7.027,7.027,0,0,0-.24,1.294c-.015.146-.023.293-.029.43l-.006.117v.027l-.857.006h.857A.8.8,0,0,1,248.462,442.847Z" transform="translate(-247.604 -437.262)" fill="#fff"/>
          </g>
          <g id="path4147" transform="translate(65.766 27.982)">
            <path id="Trazado_32" data-name="Trazado 32" d="M249.278,441.442a.8.8,0,0,1-.858-.737V436.6a.867.867,0,0,1,1.715,0v4.11A.8.8,0,0,1,249.278,441.442Z" transform="translate(-248.42 -435.858)" fill="#fff"/>
          </g>
          <g id="path4151" transform="translate(17.118 40.649)">
            <path id="Trazado_33" data-name="Trazado 33" d="M250.172,447.14a.855.855,0,0,1-.814-.512l-.319-.84a9.34,9.34,0,0,0-.986-1.735,6.363,6.363,0,0,0-1.744-1.677,4.819,4.819,0,0,0-1.141-.521,4.75,4.75,0,0,0-1.364-.193h-4.776a4.75,4.75,0,0,0-1.364.193,4.823,4.823,0,0,0-1.141.521,6.364,6.364,0,0,0-1.744,1.677,9.324,9.324,0,0,0-.992,1.75c-.088.2-.164.392-.228.577l-.053.155-.015.044a.844.844,0,0,1-.834.562.806.806,0,0,1-.857-.74.675.675,0,0,1,.032-.2h0l.015-.056c.02-.064.044-.126.067-.19.073-.216.164-.439.264-.667a10.727,10.727,0,0,1,1.144-2.014,7.98,7.98,0,0,1,2.189-2.09,6.647,6.647,0,0,1,1.589-.72,6.765,6.765,0,0,1,1.926-.275H243.8a6.763,6.763,0,0,1,1.926.275,6.643,6.643,0,0,1,1.589.72,7.982,7.982,0,0,1,2.189,2.09,10.727,10.727,0,0,1,1.144,2.014l.015.032.322.858a.72.72,0,0,1-.55.928A.934.934,0,0,1,250.172,447.14Z" transform="translate(-231.798 -440.186)" fill="#fff"/>
          </g>
          <g id="path4153" transform="translate(23.49 36.54)">
            <path id="Trazado_34" data-name="Trazado 34" d="M239.609,444.366a.8.8,0,0,1-.858-.738v-3.372H235.69v3.372a.867.867,0,0,1-1.715,0v-4.109a.8.8,0,0,1,.857-.737h4.776a.8.8,0,0,1,.858.737v4.109A.8.8,0,0,1,239.609,444.366Z" transform="translate(-233.975 -438.782)" fill="#fff"/>
          </g>
          <g id="path4155" transform="translate(23.489 32.434)">
            <path id="Trazado_35" data-name="Trazado 35" d="M234.833,442.96h-.044a.789.789,0,0,1-.814-.773l.038-.644v-.023a8.356,8.356,0,0,1,.287-1.531,4.319,4.319,0,0,1,.854-1.674,2.722,2.722,0,0,1,.852-.664,2.846,2.846,0,0,1,2.429,0,2.718,2.718,0,0,1,.852.664,4.323,4.323,0,0,1,.855,1.674,8.133,8.133,0,0,1,.284,1.531c.018.17.029.339.035.5l.006.143v.059a.868.868,0,0,1-1.715.009v-.041l0-.117c-.006-.138-.018-.284-.032-.43a7.122,7.122,0,0,0-.237-1.3,2.967,2.967,0,0,0-.565-1.147,1.084,1.084,0,0,0-.331-.266.9.9,0,0,0-.726,0,1.086,1.086,0,0,0-.331.266,2.969,2.969,0,0,0-.565,1.147,7.261,7.261,0,0,0-.237,1.285l-.035.629A.813.813,0,0,1,234.833,442.96Z" transform="translate(-233.975 -437.379)" fill="#fff"/>
          </g>
          <g id="path4157" transform="translate(25.878 28.325)">
            <path id="Trazado_36" data-name="Trazado 36" d="M235.648,441.559a.8.8,0,0,1-.857-.738v-4.109a.867.867,0,0,1,1.715,0v4.109A.8.8,0,0,1,235.648,441.559Z" transform="translate(-234.791 -435.975)" fill="#fff"/>
          </g>
          <g id="path4159" transform="translate(37.105 42.124)">
            <path id="Trazado_37" data-name="Trazado 37" d="M240.342,440.69v7.82a.867.867,0,0,1-1.715,0v-7.53Z" transform="translate(-238.627 -440.69)" fill="#fff"/>
            <g id="path4159-2" data-name="path4159" transform="translate(17.516)">
              <path id="Trazado_38" data-name="Trazado 38" d="M246.327,440.69v7.82a.867.867,0,0,1-1.715,0v-7.53Z" transform="translate(-244.612 -440.69)" fill="#fff"/>
            </g>
          </g>
          <g id="path4161" transform="translate(37.09 36.201)">
            <path id="Trazado_39" data-name="Trazado 39" d="M257.842,444.763V444.7c0-.026,0-.026-.029-.056v-.055l-.31-.8v-.026a10.592,10.592,0,0,0-1.162-2.014,7.678,7.678,0,0,0-2.183-2.1,7.193,7.193,0,0,0-1.586-.708,4.454,4.454,0,0,0-1.08-.225,8.2,8.2,0,0,0-.849-.059h-4.791a8.315,8.315,0,0,0-.852.059,4.739,4.739,0,0,0-1.077.225,7.2,7.2,0,0,0-1.586.708,8.518,8.518,0,0,0-2.183,2.1,10.5,10.5,0,0,0-1.133,2.014,3.63,3.63,0,0,0-.255.653,1.281,1.281,0,0,1-.088.2v.058a.026.026,0,0,0-.026.026v.114l-.029.029v.029a.806.806,0,0,0,.878.734.821.821,0,0,0,.822-.538v-.026l.029-.029c0-.056.029-.114.029-.17.085-.17.14-.369.255-.568a.284.284,0,0,1,.056-.141,8.178,8.178,0,0,1,.937-1.616,6.393,6.393,0,0,1,1.73-1.674,4.544,4.544,0,0,1,1.133-.509,4.464,4.464,0,0,1,1.361-.2h4.791a4.215,4.215,0,0,1,1.361.2,4.151,4.151,0,0,1,1.133.509,6.478,6.478,0,0,1,1.759,1.674,12.314,12.314,0,0,1,.934,1.616c0,.055.029.085.059.141l.255.682.056.141a.853.853,0,0,0,.822.509.843.843,0,0,0,.255-.026.774.774,0,0,0,.6-.708v-.114Z" transform="translate(-238.622 -438.666)" fill="#fff"/>
          </g>
          <g id="path4163" transform="translate(43.473 32.091)">
            <path id="Trazado_40" data-name="Trazado 40" d="M246.437,442.847a.8.8,0,0,1-.857-.741v-3.369h-3.061v3.369a.867.867,0,0,1-1.715,0V438a.8.8,0,0,1,.858-.738h4.776a.807.807,0,0,1,.861.738v4.106A.808.808,0,0,1,246.437,442.847Z" transform="translate(-240.803 -437.262)" fill="#fff"/>
          </g>
          <g id="path4165" transform="translate(43.472 27.982)">
            <path id="Trazado_41" data-name="Trazado 41" d="M246.438,441.442a.81.81,0,0,1-.855-.7l-.038-.629a6.955,6.955,0,0,0-.237-1.282,2.915,2.915,0,0,0-.565-1.147,1.1,1.1,0,0,0-.331-.269.92.92,0,0,0-.726,0,1.1,1.1,0,0,0-.331.269,2.953,2.953,0,0,0-.562,1.147,6.93,6.93,0,0,0-.24,1.282l-.035.629a.82.82,0,0,1-.9.7.793.793,0,0,1-.814-.776l.038-.641,0-.026a8.1,8.1,0,0,1,.284-1.528,4.35,4.35,0,0,1,.855-1.677,2.721,2.721,0,0,1,.855-.661,2.814,2.814,0,0,1,2.426,0,2.676,2.676,0,0,1,.852.661,4.4,4.4,0,0,1,.858,1.677,8.547,8.547,0,0,1,.284,1.528v.026l.038.641a.791.791,0,0,1-.814.776Z" transform="translate(-240.803 -435.858)" fill="#fff"/>
          </g>
          <g id="path4167" transform="translate(45.862 23.876)">
            <path id="Trazado_42" data-name="Trazado 42" d="M242.477,440.036a.8.8,0,0,1-.857-.738v-4.106a.867.867,0,0,1,1.715,0V439.3A.8.8,0,0,1,242.477,440.036Z" transform="translate(-241.619 -434.455)" fill="#fff"/>
          </g>
          <g id="path4171" transform="translate(77.231 22.507)">
            <path id="Trazado_43" data-name="Trazado 43" d="M253.2,447.1a1.028,1.028,0,0,1-.208-.024.737.737,0,0,1-.626-.893l.524-1.82.009-.029a20.67,20.67,0,0,1,1.932-4.138,16.1,16.1,0,0,1,1.654-2.239,12.831,12.831,0,0,1,2.221-1.99,10.932,10.932,0,0,1,2.877-1.434,11.527,11.527,0,0,1,3.559-.547h3.187a.746.746,0,1,1,0,1.475h-3.187a9.524,9.524,0,0,0-2.953.454,9.1,9.1,0,0,0-2.4,1.2,11.173,11.173,0,0,0-1.937,1.738,14.454,14.454,0,0,0-1.5,2.034,19.29,19.29,0,0,0-1.8,3.849l-.518,1.8A.842.842,0,0,1,253.2,447.1Z" transform="translate(-252.337 -433.987)" fill="#fff"/>
          </g>
          <g id="path4173" transform="translate(89.97 17.028)">
            <path id="Trazado_44" data-name="Trazado 44" d="M257.548,439.069a.806.806,0,0,1-.857-.737v-5.479a.806.806,0,0,1,.857-.738h2.391a.746.746,0,1,1,0,1.475h-1.531v4.742A.807.807,0,0,1,257.548,439.069Z" transform="translate(-256.69 -432.115)" fill="#fff"/>
          </g>
          <g id="path4175" transform="translate(89.972 12.922)">
            <path id="Trazado_45" data-name="Trazado 45" d="M257.549,436.293h-.044a.789.789,0,0,1-.814-.772l.035-.644,0-.023a8.353,8.353,0,0,1,.284-1.531,4.361,4.361,0,0,1,.855-1.674,2.663,2.663,0,0,1,2.069-.937.746.746,0,1,1,0,1.475.848.848,0,0,0-.363.079,1.094,1.094,0,0,0-.334.266,2.972,2.972,0,0,0-.562,1.147,7.031,7.031,0,0,0-.237,1.285l-.038.629A.81.81,0,0,1,257.549,436.293Z" transform="translate(-256.691 -430.712)" fill="#fff"/>
          </g>
          <g id="path4177" transform="translate(92.359 8.812)">
            <path id="Trazado_46" data-name="Trazado 46" d="M258.366,434.892a.807.807,0,0,1-.86-.738v-4.109a.869.869,0,0,1,1.718,0v4.109A.806.806,0,0,1,258.366,434.892Z" transform="translate(-257.506 -429.308)" fill="#fff"/>
          </g>
          <g id="path3869-3" data-name="path3869" transform="translate(110.115 46.599)">
            <path id="Trazado_47" data-name="Trazado 47" d="M265.288,442.219v3a.867.867,0,0,1-1.715,0v-2.74Z" transform="translate(-263.573 -442.219)" fill="#fff"/>
            <g id="path3869-4" data-name="path3869" transform="translate(17.516)">
              <path id="Trazado_48" data-name="Trazado 48" d="M271.273,442.219v3a.867.867,0,0,1-1.715,0v-2.74Z" transform="translate(-269.558 -442.219)" fill="#fff"/>
            </g>
          </g>
          <g id="path3869-5" data-name="path3869" transform="translate(57.01 46.599)">
            <path id="Trazado_49" data-name="Trazado 49" d="M247.143,442.219v3a.867.867,0,0,1-1.715,0v-2.74Z" transform="translate(-245.428 -442.219)" fill="#fff"/>
            <g id="path3869-6" data-name="path3869" transform="translate(17.516)">
              <path id="Trazado_50" data-name="Trazado 50" d="M253.128,442.219v3a.867.867,0,0,1-1.715,0v-2.74Z" transform="translate(-251.413 -442.219)" fill="#fff"/>
            </g>
          </g>
          <g id="path3869-7" data-name="path3869" transform="translate(17.118 46.599)">
            <path id="Trazado_51" data-name="Trazado 51" d="M233.516,442.219v3a.869.869,0,0,1-1.718,0v-2.74Z" transform="translate(-231.798 -442.219)" fill="#fff"/>
            <g id="path3869-8" data-name="path3869" transform="translate(17.516)">
              <path id="Trazado_52" data-name="Trazado 52" d="M239.5,442.219v3a.869.869,0,0,1-1.718,0v-2.74Z" transform="translate(-237.783 -442.219)" fill="#fff"/>
            </g>
          </g>
          <rect id="Rectángulo_2" data-name="Rectángulo 2" width="1.701" height="14.132" transform="translate(77.257 34.706)" fill="#fff"/>
          <rect id="Rectángulo_3" data-name="Rectángulo 3" width="1.691" height="13.681" transform="translate(107.433 34.706)" fill="#fff"/>
        </g>
      </g>
      <g id="path4159-3" data-name="path4159" transform="translate(130.02 42.124)">
        <path id="Trazado_53" data-name="Trazado 53" d="M272.089,440.69v7.82a.867.867,0,0,1-1.715,0v-7.53Z" transform="translate(-270.374 -440.69)" fill="#fff"/>
        <g id="path4159-4" data-name="path4159" transform="translate(17.516)">
          <path id="Trazado_54" data-name="Trazado 54" d="M278.074,440.69v7.82a.867.867,0,0,1-1.715,0v-7.53Z" transform="translate(-276.359 -440.69)" fill="#fff"/>
        </g>
      </g>
    </g>
    <g id="Grupo_6" data-name="Grupo 6" transform="translate(229.025 384.01)">
      <g id="Grupo_5" data-name="Grupo 5">
        <g id="Grupo_4" data-name="Grupo 4">
          <g id="Grupo_3" data-name="Grupo 3" transform="translate(0.937 2.839)">
            <g id="Grupo_2" data-name="Grupo 2" clip-path="url(#clip-path)">
              <rect id="Rectángulo_4" data-name="Rectángulo 4" width="0.597" height="117.215" transform="translate(5.122 0)" fill="#96cb2c"/>
              <rect id="Rectángulo_5" data-name="Rectángulo 5" width="0.953" height="117.215" transform="translate(5.719 0)" fill="#95cb2d"/>
              <rect id="Rectángulo_6" data-name="Rectángulo 6" width="0.953" height="117.215" transform="translate(6.672 0)" fill="#95cb2e"/>
              <rect id="Rectángulo_7" data-name="Rectángulo 7" width="0.953" height="117.215" transform="translate(7.625 0)" fill="#94cb2f"/>
              <rect id="Rectángulo_8" data-name="Rectángulo 8" width="0.953" height="117.215" transform="translate(8.578 0)" fill="#94cb30"/>
              <rect id="Rectángulo_9" data-name="Rectángulo 9" width="0.953" height="117.215" transform="translate(9.531 0)" fill="#93cb31"/>
              <rect id="Rectángulo_10" data-name="Rectángulo 10" width="0.953" height="117.215" transform="translate(10.485 0)" fill="#93ca32"/>
              <rect id="Rectángulo_11" data-name="Rectángulo 11" width="0.953" height="117.215" transform="translate(11.438 0)" fill="#93ca33"/>
              <rect id="Rectángulo_12" data-name="Rectángulo 12" width="0.953" height="117.215" transform="translate(12.391 0)" fill="#92ca34"/>
              <rect id="Rectángulo_13" data-name="Rectángulo 13" width="0.953" height="117.215" transform="translate(13.344 0)" fill="#92ca35"/>
              <rect id="Rectángulo_14" data-name="Rectángulo 14" width="0.953" height="117.215" transform="translate(14.297 0)" fill="#91ca36"/>
              <rect id="Rectángulo_15" data-name="Rectángulo 15" width="0.953" height="117.215" transform="translate(15.25 0)" fill="#91ca37"/>
              <rect id="Rectángulo_16" data-name="Rectángulo 16" width="0.953" height="117.215" transform="translate(16.203 0)" fill="#90ca38"/>
              <rect id="Rectángulo_17" data-name="Rectángulo 17" width="0.953" height="117.215" transform="translate(17.157 0)" fill="#90c939"/>
              <rect id="Rectángulo_18" data-name="Rectángulo 18" width="0.953" height="117.215" transform="translate(18.11 0)" fill="#8fc93a"/>
              <rect id="Rectángulo_19" data-name="Rectángulo 19" width="0.953" height="117.215" transform="translate(19.063 0)" fill="#8fc93b"/>
              <rect id="Rectángulo_20" data-name="Rectángulo 20" width="0.953" height="117.215" transform="translate(20.016 0)" fill="#8fc93c"/>
              <rect id="Rectángulo_21" data-name="Rectángulo 21" width="0.953" height="117.215" transform="translate(20.969 0)" fill="#8ec93d"/>
              <rect id="Rectángulo_22" data-name="Rectángulo 22" width="0.953" height="117.215" transform="translate(21.922 0)" fill="#8ec93e"/>
              <rect id="Rectángulo_23" data-name="Rectángulo 23" width="0.953" height="117.215" transform="translate(22.875 0)" fill="#8dc93f"/>
              <rect id="Rectángulo_24" data-name="Rectángulo 24" width="0.953" height="117.215" transform="translate(23.829 0)" fill="#8dc940"/>
              <rect id="Rectángulo_25" data-name="Rectángulo 25" width="0.953" height="117.215" transform="translate(24.782 0)" fill="#8cc841"/>
              <rect id="Rectángulo_26" data-name="Rectángulo 26" width="0.953" height="117.215" transform="translate(25.735 0)" fill="#8cc842"/>
              <rect id="Rectángulo_27" data-name="Rectángulo 27" width="0.953" height="117.215" transform="translate(26.688 0)" fill="#8bc843"/>
              <rect id="Rectángulo_28" data-name="Rectángulo 28" width="0.953" height="117.215" transform="translate(27.641 0)" fill="#8bc844"/>
              <rect id="Rectángulo_29" data-name="Rectángulo 29" width="0.953" height="117.215" transform="translate(28.594 0)" fill="#8ac845"/>
              <rect id="Rectángulo_30" data-name="Rectángulo 30" width="0.953" height="117.215" transform="translate(29.547 0)" fill="#8ac846"/>
              <rect id="Rectángulo_31" data-name="Rectángulo 31" width="0.953" height="117.215" transform="translate(30.501 0)" fill="#8ac847"/>
              <rect id="Rectángulo_32" data-name="Rectángulo 32" width="0.953" height="117.215" transform="translate(31.454 0)" fill="#89c748"/>
              <rect id="Rectángulo_33" data-name="Rectángulo 33" width="0.953" height="117.215" transform="translate(32.407 0)" fill="#89c749"/>
              <rect id="Rectángulo_34" data-name="Rectángulo 34" width="0.953" height="117.215" transform="translate(33.36 0)" fill="#88c74a"/>
              <rect id="Rectángulo_35" data-name="Rectángulo 35" width="0.953" height="117.215" transform="translate(34.313 0)" fill="#88c74b"/>
              <rect id="Rectángulo_36" data-name="Rectángulo 36" width="0.953" height="117.215" transform="translate(35.266 0)" fill="#87c74c"/>
              <rect id="Rectángulo_37" data-name="Rectángulo 37" width="0.953" height="117.215" transform="translate(36.219 0)" fill="#87c74d"/>
              <rect id="Rectángulo_38" data-name="Rectángulo 38" width="0.953" height="117.215" transform="translate(37.173 0)" fill="#86c74e"/>
              <rect id="Rectángulo_39" data-name="Rectángulo 39" width="0.953" height="117.215" transform="translate(38.126 0)" fill="#86c64f"/>
              <rect id="Rectángulo_40" data-name="Rectángulo 40" width="0.953" height="117.215" transform="translate(39.079 0)" fill="#85c650"/>
              <rect id="Rectángulo_41" data-name="Rectángulo 41" width="0.953" height="117.215" transform="translate(40.032 0)" fill="#85c651"/>
              <rect id="Rectángulo_42" data-name="Rectángulo 42" width="0.953" height="117.215" transform="translate(40.985 0)" fill="#85c652"/>
              <rect id="Rectángulo_43" data-name="Rectángulo 43" width="0.953" height="117.215" transform="translate(41.938 0)" fill="#84c653"/>
              <rect id="Rectángulo_44" data-name="Rectángulo 44" width="0.953" height="117.215" transform="translate(42.891 0)" fill="#84c654"/>
              <rect id="Rectángulo_45" data-name="Rectángulo 45" width="0.953" height="117.215" transform="translate(43.845 0)" fill="#83c655"/>
              <rect id="Rectángulo_46" data-name="Rectángulo 46" width="0.953" height="117.215" transform="translate(44.798 0)" fill="#83c556"/>
              <rect id="Rectángulo_47" data-name="Rectángulo 47" width="0.953" height="117.215" transform="translate(45.751 0)" fill="#82c557"/>
              <rect id="Rectángulo_48" data-name="Rectángulo 48" width="0.953" height="117.215" transform="translate(46.704 0)" fill="#82c558"/>
              <rect id="Rectángulo_49" data-name="Rectángulo 49" width="0.953" height="117.215" transform="translate(47.657 0)" fill="#81c559"/>
              <rect id="Rectángulo_50" data-name="Rectángulo 50" width="0.953" height="117.215" transform="translate(48.61 0)" fill="#81c55a"/>
              <rect id="Rectángulo_51" data-name="Rectángulo 51" width="0.953" height="117.215" transform="translate(49.563 0)" fill="#81c55b"/>
              <rect id="Rectángulo_52" data-name="Rectángulo 52" width="0.953" height="117.215" transform="translate(50.517 0)" fill="#80c55c"/>
              <rect id="Rectángulo_53" data-name="Rectángulo 53" width="0.953" height="117.215" transform="translate(51.47 0)" fill="#80c45d"/>
              <rect id="Rectángulo_54" data-name="Rectángulo 54" width="0.953" height="117.215" transform="translate(52.423 0)" fill="#7fc45e"/>
              <rect id="Rectángulo_55" data-name="Rectángulo 55" width="0.953" height="117.215" transform="translate(53.376 0)" fill="#7fc45f"/>
              <rect id="Rectángulo_56" data-name="Rectángulo 56" width="0.953" height="117.215" transform="translate(54.329 0)" fill="#7ec460"/>
              <rect id="Rectángulo_57" data-name="Rectángulo 57" width="0.953" height="117.215" transform="translate(55.282 0)" fill="#7ec461"/>
              <rect id="Rectángulo_58" data-name="Rectángulo 58" width="0.953" height="117.215" transform="translate(56.235 0)" fill="#7dc462"/>
              <rect id="Rectángulo_59" data-name="Rectángulo 59" width="0.953" height="117.215" transform="translate(57.188 0)" fill="#7dc463"/>
              <rect id="Rectángulo_60" data-name="Rectángulo 60" width="0.953" height="117.215" transform="translate(58.142 0)" fill="#7cc364"/>
              <rect id="Rectángulo_61" data-name="Rectángulo 61" width="0.953" height="117.215" transform="translate(59.095 0)" fill="#7cc365"/>
              <rect id="Rectángulo_62" data-name="Rectángulo 62" width="0.953" height="117.215" transform="translate(60.048 0)" fill="#7cc366"/>
              <rect id="Rectángulo_63" data-name="Rectángulo 63" width="0.953" height="117.215" transform="translate(61.001 0)" fill="#7bc367"/>
              <rect id="Rectángulo_64" data-name="Rectángulo 64" width="0.953" height="117.215" transform="translate(61.954 0)" fill="#7bc368"/>
              <rect id="Rectángulo_65" data-name="Rectángulo 65" width="0.953" height="117.215" transform="translate(62.907 0)" fill="#7ac369"/>
              <rect id="Rectángulo_66" data-name="Rectángulo 66" width="0.953" height="117.215" transform="translate(63.86 0)" fill="#7ac36a"/>
              <rect id="Rectángulo_67" data-name="Rectángulo 67" width="0.953" height="117.215" transform="translate(64.814 0)" fill="#79c26b"/>
              <rect id="Rectángulo_68" data-name="Rectángulo 68" width="0.953" height="117.215" transform="translate(65.767 0)" fill="#79c26c"/>
              <rect id="Rectángulo_69" data-name="Rectángulo 69" width="0.953" height="117.215" transform="translate(66.72 0)" fill="#78c26d"/>
              <rect id="Rectángulo_70" data-name="Rectángulo 70" width="0.953" height="117.215" transform="translate(67.673 0)" fill="#78c26e"/>
              <rect id="Rectángulo_71" data-name="Rectángulo 71" width="0.953" height="117.215" transform="translate(68.626 0)" fill="#77c26f"/>
              <rect id="Rectángulo_72" data-name="Rectángulo 72" width="0.953" height="117.215" transform="translate(69.579 0)" fill="#77c270"/>
              <rect id="Rectángulo_73" data-name="Rectángulo 73" width="0.953" height="117.215" transform="translate(70.532 0)" fill="#77c271"/>
              <rect id="Rectángulo_74" data-name="Rectángulo 74" width="0.953" height="117.215" transform="translate(71.486 0)" fill="#76c272"/>
              <rect id="Rectángulo_75" data-name="Rectángulo 75" width="0.953" height="117.215" transform="translate(72.439 0)" fill="#76c173"/>
              <rect id="Rectángulo_76" data-name="Rectángulo 76" width="0.953" height="117.215" transform="translate(73.392 0)" fill="#75c174"/>
              <rect id="Rectángulo_77" data-name="Rectángulo 77" width="0.953" height="117.215" transform="translate(74.345 0)" fill="#75c175"/>
              <rect id="Rectángulo_78" data-name="Rectángulo 78" width="0.953" height="117.215" transform="translate(75.298 0)" fill="#74c176"/>
              <rect id="Rectángulo_79" data-name="Rectángulo 79" width="0.953" height="117.215" transform="translate(76.251 0)" fill="#74c177"/>
              <rect id="Rectángulo_80" data-name="Rectángulo 80" width="0.953" height="117.215" transform="translate(77.204 0)" fill="#73c178"/>
              <rect id="Rectángulo_81" data-name="Rectángulo 81" width="0.953" height="117.215" transform="translate(78.158 0)" fill="#73c179"/>
              <rect id="Rectángulo_82" data-name="Rectángulo 82" width="0.953" height="117.215" transform="translate(79.111 0)" fill="#73c07a"/>
              <rect id="Rectángulo_83" data-name="Rectángulo 83" width="0.953" height="117.215" transform="translate(80.064 0)" fill="#72c07b"/>
              <rect id="Rectángulo_84" data-name="Rectángulo 84" width="0.953" height="117.215" transform="translate(81.017 0)" fill="#72c07c"/>
              <rect id="Rectángulo_85" data-name="Rectángulo 85" width="0.953" height="117.215" transform="translate(81.97 0)" fill="#71c07d"/>
              <rect id="Rectángulo_86" data-name="Rectángulo 86" width="0.953" height="117.215" transform="translate(82.923 0)" fill="#71c07e"/>
              <rect id="Rectángulo_87" data-name="Rectángulo 87" width="0.953" height="117.215" transform="translate(83.876 0)" fill="#70c07f"/>
              <rect id="Rectángulo_88" data-name="Rectángulo 88" width="0.953" height="117.215" transform="translate(84.83 0)" fill="#70c080"/>
              <rect id="Rectángulo_89" data-name="Rectángulo 89" width="0.953" height="117.215" transform="translate(85.783 0)" fill="#6fbf81"/>
              <rect id="Rectángulo_90" data-name="Rectángulo 90" width="0.953" height="117.215" transform="translate(86.736 0)" fill="#6fbf82"/>
              <rect id="Rectángulo_91" data-name="Rectángulo 91" width="0.953" height="117.215" transform="translate(87.689 0)" fill="#6ebf83"/>
              <rect id="Rectángulo_92" data-name="Rectángulo 92" width="0.953" height="117.215" transform="translate(88.642 0)" fill="#6ebf85"/>
              <rect id="Rectángulo_93" data-name="Rectángulo 93" width="0.953" height="117.215" transform="translate(89.595 0)" fill="#6ebf86"/>
              <rect id="Rectángulo_94" data-name="Rectángulo 94" width="0.953" height="117.215" transform="translate(90.548 0)" fill="#6dbf87"/>
              <rect id="Rectángulo_95" data-name="Rectángulo 95" width="0.953" height="117.215" transform="translate(91.502 0)" fill="#6dbf88"/>
              <rect id="Rectángulo_96" data-name="Rectángulo 96" width="0.953" height="117.215" transform="translate(92.455 0)" fill="#6cbe89"/>
              <rect id="Rectángulo_97" data-name="Rectángulo 97" width="0.953" height="117.215" transform="translate(93.408 0)" fill="#6cbe8a"/>
              <rect id="Rectángulo_98" data-name="Rectángulo 98" width="0.953" height="117.215" transform="translate(94.361 0)" fill="#6bbe8b"/>
              <rect id="Rectángulo_99" data-name="Rectángulo 99" width="0.953" height="117.215" transform="translate(95.314 0)" fill="#6bbe8c"/>
              <rect id="Rectángulo_100" data-name="Rectángulo 100" width="0.953" height="117.215" transform="translate(96.267 0)" fill="#6abe8d"/>
              <rect id="Rectángulo_101" data-name="Rectángulo 101" width="0.953" height="117.215" transform="translate(97.22 0)" fill="#6abe8e"/>
              <rect id="Rectángulo_102" data-name="Rectángulo 102" width="0.953" height="117.215" transform="translate(98.174 0)" fill="#69be8f"/>
              <rect id="Rectángulo_103" data-name="Rectángulo 103" width="0.953" height="117.215" transform="translate(99.127 0)" fill="#69bd90"/>
              <rect id="Rectángulo_104" data-name="Rectángulo 104" width="0.953" height="117.215" transform="translate(100.08 0)" fill="#69bd91"/>
              <rect id="Rectángulo_105" data-name="Rectángulo 105" width="0.953" height="117.215" transform="translate(101.033 0)" fill="#68bd92"/>
              <rect id="Rectángulo_106" data-name="Rectángulo 106" width="0.953" height="117.215" transform="translate(101.986 0)" fill="#68bd93"/>
              <rect id="Rectángulo_107" data-name="Rectángulo 107" width="0.953" height="117.215" transform="translate(102.939 0)" fill="#67bd94"/>
              <rect id="Rectángulo_108" data-name="Rectángulo 108" width="0.953" height="117.215" transform="translate(103.892 0)" fill="#67bd95"/>
              <rect id="Rectángulo_109" data-name="Rectángulo 109" width="0.953" height="117.215" transform="translate(104.846 0)" fill="#66bd96"/>
              <rect id="Rectángulo_110" data-name="Rectángulo 110" width="0.953" height="117.215" transform="translate(105.799 0)" fill="#66bc97"/>
              <rect id="Rectángulo_111" data-name="Rectángulo 111" width="0.953" height="117.215" transform="translate(106.752 0)" fill="#65bc98"/>
              <rect id="Rectángulo_112" data-name="Rectángulo 112" width="0.953" height="117.215" transform="translate(107.705 0)" fill="#65bc99"/>
              <rect id="Rectángulo_113" data-name="Rectángulo 113" width="0.953" height="117.215" transform="translate(108.658 0)" fill="#65bc9a"/>
              <rect id="Rectángulo_114" data-name="Rectángulo 114" width="0.953" height="117.215" transform="translate(109.611 0)" fill="#64bc9b"/>
              <rect id="Rectángulo_115" data-name="Rectángulo 115" width="0.953" height="117.215" transform="translate(110.564 0)" fill="#64bc9c"/>
              <rect id="Rectángulo_116" data-name="Rectángulo 116" width="0.953" height="117.215" transform="translate(111.518 0)" fill="#63bc9d"/>
              <rect id="Rectángulo_117" data-name="Rectángulo 117" width="0.953" height="117.215" transform="translate(112.471 0)" fill="#63bc9e"/>
              <rect id="Rectángulo_118" data-name="Rectángulo 118" width="0.953" height="117.215" transform="translate(113.424 0)" fill="#62bb9f"/>
              <rect id="Rectángulo_119" data-name="Rectángulo 119" width="0.953" height="117.215" transform="translate(114.377 0)" fill="#62bba0"/>
              <rect id="Rectángulo_120" data-name="Rectángulo 120" width="0.953" height="117.215" transform="translate(115.33 0)" fill="#61bba1"/>
              <rect id="Rectángulo_121" data-name="Rectángulo 121" width="0.953" height="117.215" transform="translate(116.283 0)" fill="#61bba2"/>
              <rect id="Rectángulo_122" data-name="Rectángulo 122" width="0.953" height="117.215" transform="translate(117.236 0)" fill="#60bba3"/>
              <rect id="Rectángulo_123" data-name="Rectángulo 123" width="0.953" height="117.215" transform="translate(118.19 0)" fill="#60bba4"/>
              <rect id="Rectángulo_124" data-name="Rectángulo 124" width="0.953" height="117.215" transform="translate(119.143 0)" fill="#60bba5"/>
              <rect id="Rectángulo_125" data-name="Rectángulo 125" width="0.953" height="117.215" transform="translate(120.096 0)" fill="#5fbaa6"/>
              <rect id="Rectángulo_126" data-name="Rectángulo 126" width="0.953" height="117.215" transform="translate(121.049 0)" fill="#5fbaa7"/>
              <rect id="Rectángulo_127" data-name="Rectángulo 127" width="0.953" height="117.215" transform="translate(122.002 0)" fill="#5ebaa8"/>
              <rect id="Rectángulo_128" data-name="Rectángulo 128" width="0.953" height="117.215" transform="translate(122.955 0)" fill="#5ebaa9"/>
              <rect id="Rectángulo_129" data-name="Rectángulo 129" width="0.953" height="117.215" transform="translate(123.908 0)" fill="#5dbaaa"/>
              <rect id="Rectángulo_130" data-name="Rectángulo 130" width="0.953" height="117.215" transform="translate(124.862 0)" fill="#5dbaab"/>
              <rect id="Rectángulo_131" data-name="Rectángulo 131" width="0.953" height="117.215" transform="translate(125.815 0)" fill="#5cbaac"/>
              <rect id="Rectángulo_132" data-name="Rectángulo 132" width="0.953" height="117.215" transform="translate(126.768 0)" fill="#5cb9ad"/>
              <rect id="Rectángulo_133" data-name="Rectángulo 133" width="0.953" height="117.215" transform="translate(127.721 0)" fill="#5bb9ae"/>
              <rect id="Rectángulo_134" data-name="Rectángulo 134" width="0.953" height="117.215" transform="translate(128.674 0)" fill="#5bb9af"/>
              <rect id="Rectángulo_135" data-name="Rectángulo 135" width="0.953" height="117.215" transform="translate(129.627 0)" fill="#5bb9b0"/>
              <rect id="Rectángulo_136" data-name="Rectángulo 136" width="0.953" height="117.215" transform="translate(130.58 0)" fill="#5ab9b1"/>
              <rect id="Rectángulo_137" data-name="Rectángulo 137" width="0.953" height="117.215" transform="translate(131.534 0)" fill="#5ab9b2"/>
              <rect id="Rectángulo_138" data-name="Rectángulo 138" width="0.953" height="117.215" transform="translate(132.487 0)" fill="#59b9b3"/>
              <rect id="Rectángulo_139" data-name="Rectángulo 139" width="0.953" height="117.215" transform="translate(133.44 0)" fill="#59b8b4"/>
              <rect id="Rectángulo_140" data-name="Rectángulo 140" width="0.953" height="117.215" transform="translate(134.393 0)" fill="#58b8b5"/>
              <rect id="Rectángulo_141" data-name="Rectángulo 141" width="0.953" height="117.215" transform="translate(135.346 0)" fill="#58b8b6"/>
              <rect id="Rectángulo_142" data-name="Rectángulo 142" width="0.953" height="117.215" transform="translate(136.299 0)" fill="#57b8b7"/>
              <rect id="Rectángulo_143" data-name="Rectángulo 143" width="0.953" height="117.215" transform="translate(137.252 0)" fill="#57b8b8"/>
              <rect id="Rectángulo_144" data-name="Rectángulo 144" width="0.953" height="117.215" transform="translate(138.206 0)" fill="#57b8b9"/>
              <rect id="Rectángulo_145" data-name="Rectángulo 145" width="0.953" height="117.215" transform="translate(139.159 0)" fill="#56b8ba"/>
              <rect id="Rectángulo_146" data-name="Rectángulo 146" width="0.953" height="117.215" transform="translate(140.112 0)" fill="#56b7bb"/>
              <rect id="Rectángulo_147" data-name="Rectángulo 147" width="0.953" height="117.215" transform="translate(141.065 0)" fill="#55b7bc"/>
              <rect id="Rectángulo_148" data-name="Rectángulo 148" width="0.953" height="117.215" transform="translate(142.018 0)" fill="#55b7bd"/>
              <rect id="Rectángulo_149" data-name="Rectángulo 149" width="0.953" height="117.215" transform="translate(142.971 0)" fill="#54b7be"/>
              <rect id="Rectángulo_150" data-name="Rectángulo 150" width="0.953" height="117.215" transform="translate(143.924 0)" fill="#54b7bf"/>
              <rect id="Rectángulo_151" data-name="Rectángulo 151" width="0.953" height="117.215" transform="translate(144.877 0)" fill="#53b7c0"/>
              <rect id="Rectángulo_152" data-name="Rectángulo 152" width="0.953" height="117.215" transform="translate(145.831 0)" fill="#53b7c1"/>
              <rect id="Rectángulo_153" data-name="Rectángulo 153" width="0.953" height="117.215" transform="translate(146.784 0)" fill="#52b6c2"/>
              <rect id="Rectángulo_154" data-name="Rectángulo 154" width="0.953" height="117.215" transform="translate(147.737 0)" fill="#52b6c3"/>
              <rect id="Rectángulo_155" data-name="Rectángulo 155" width="0.953" height="117.215" transform="translate(148.69 0)" fill="#52b6c4"/>
              <rect id="Rectángulo_156" data-name="Rectángulo 156" width="0.953" height="117.215" transform="translate(149.643 0)" fill="#51b6c5"/>
              <rect id="Rectángulo_157" data-name="Rectángulo 157" width="0.953" height="117.215" transform="translate(150.596 0)" fill="#51b6c6"/>
              <rect id="Rectángulo_158" data-name="Rectángulo 158" width="0.953" height="117.215" transform="translate(151.55 0)" fill="#50b6c7"/>
              <rect id="Rectángulo_159" data-name="Rectángulo 159" width="0.953" height="117.215" transform="translate(152.503 0)" fill="#50b6c8"/>
              <rect id="Rectángulo_160" data-name="Rectángulo 160" width="0.953" height="117.215" transform="translate(153.456 0)" fill="#4fb5c9"/>
              <rect id="Rectángulo_161" data-name="Rectángulo 161" width="0.953" height="117.215" transform="translate(154.409 0)" fill="#4fb5ca"/>
              <rect id="Rectángulo_162" data-name="Rectángulo 162" width="0.953" height="117.215" transform="translate(155.362 0)" fill="#4eb5cb"/>
              <rect id="Rectángulo_163" data-name="Rectángulo 163" width="0.953" height="117.215" transform="translate(156.315 0)" fill="#4eb5cc"/>
              <rect id="Rectángulo_164" data-name="Rectángulo 164" width="0.953" height="117.215" transform="translate(157.268 0)" fill="#4db5cd"/>
              <rect id="Rectángulo_165" data-name="Rectángulo 165" width="0.953" height="117.215" transform="translate(158.221 0)" fill="#4db5ce"/>
              <rect id="Rectángulo_166" data-name="Rectángulo 166" width="0.953" height="117.215" transform="translate(159.175 0)" fill="#4db5cf"/>
              <rect id="Rectángulo_167" data-name="Rectángulo 167" width="0.953" height="117.215" transform="translate(160.128 0)" fill="#4cb5d0"/>
              <rect id="Rectángulo_168" data-name="Rectángulo 168" width="0.953" height="117.215" transform="translate(161.081 0)" fill="#4cb4d1"/>
              <rect id="Rectángulo_169" data-name="Rectángulo 169" width="0.953" height="117.215" transform="translate(162.034 0)" fill="#4bb4d2"/>
              <rect id="Rectángulo_170" data-name="Rectángulo 170" width="0.953" height="117.215" transform="translate(162.987 0)" fill="#4bb4d3"/>
              <rect id="Rectángulo_171" data-name="Rectángulo 171" width="0.953" height="117.215" transform="translate(163.94 0)" fill="#4ab4d4"/>
              <rect id="Rectángulo_172" data-name="Rectángulo 172" width="0.953" height="117.215" transform="translate(164.893 0)" fill="#4ab4d5"/>
              <rect id="Rectángulo_173" data-name="Rectángulo 173" width="0.953" height="117.215" transform="translate(165.847 0)" fill="#49b4d6"/>
              <rect id="Rectángulo_174" data-name="Rectángulo 174" width="0.953" height="117.215" transform="translate(166.8 0)" fill="#49b4d7"/>
              <rect id="Rectángulo_175" data-name="Rectángulo 175" width="0.953" height="117.215" transform="translate(167.753 0)" fill="#49b3d8"/>
              <rect id="Rectángulo_176" data-name="Rectángulo 176" width="0.953" height="117.215" transform="translate(168.706 0)" fill="#48b3d9"/>
              <rect id="Rectángulo_177" data-name="Rectángulo 177" width="0.953" height="117.215" transform="translate(169.659 0)" fill="#48b3da"/>
              <rect id="Rectángulo_178" data-name="Rectángulo 178" width="0.953" height="117.215" transform="translate(170.612 0)" fill="#47b3db"/>
              <rect id="Rectángulo_179" data-name="Rectángulo 179" width="0.953" height="117.215" transform="translate(171.565 0)" fill="#47b3dc"/>
              <rect id="Rectángulo_180" data-name="Rectángulo 180" width="0.626" height="117.215" transform="translate(172.519 0)" fill="#46b3dd"/>
              <path id="Trazado_55" data-name="Trazado 55" d="M227.32,445.83v0Z" transform="translate(-227.32 -267.739)" fill="#98cc27"/>
              <rect id="Rectángulo_181" data-name="Rectángulo 181" width="0.953" height="69.041" transform="translate(0 178.091)" fill="#98cc27"/>
              <rect id="Rectángulo_182" data-name="Rectángulo 182" width="0.953" height="69.041" transform="translate(0.953 178.091)" fill="#98cc28"/>
              <rect id="Rectángulo_183" data-name="Rectángulo 183" width="0.953" height="69.041" transform="translate(1.906 178.091)" fill="#97cc29"/>
              <rect id="Rectángulo_184" data-name="Rectángulo 184" width="0.953" height="69.041" transform="translate(2.859 178.091)" fill="#97cc2a"/>
              <rect id="Rectángulo_185" data-name="Rectángulo 185" width="0.953" height="69.041" transform="translate(3.813 178.091)" fill="#96cb2b"/>
              <rect id="Rectángulo_186" data-name="Rectángulo 186" width="0.953" height="69.041" transform="translate(4.766 178.091)" fill="#96cb2c"/>
              <rect id="Rectángulo_187" data-name="Rectángulo 187" width="0.953" height="69.041" transform="translate(5.719 178.091)" fill="#95cb2d"/>
              <rect id="Rectángulo_188" data-name="Rectángulo 188" width="0.953" height="69.041" transform="translate(6.672 178.091)" fill="#95cb2e"/>
              <rect id="Rectángulo_189" data-name="Rectángulo 189" width="0.953" height="69.041" transform="translate(7.625 178.091)" fill="#94cb2f"/>
              <rect id="Rectángulo_190" data-name="Rectángulo 190" width="0.953" height="69.041" transform="translate(8.578 178.091)" fill="#94cb30"/>
              <rect id="Rectángulo_191" data-name="Rectángulo 191" width="0.953" height="69.041" transform="translate(9.531 178.091)" fill="#93cb31"/>
              <rect id="Rectángulo_192" data-name="Rectángulo 192" width="0.953" height="69.041" transform="translate(10.485 178.091)" fill="#93ca32"/>
              <rect id="Rectángulo_193" data-name="Rectángulo 193" width="0.953" height="69.041" transform="translate(11.438 178.091)" fill="#93ca33"/>
              <rect id="Rectángulo_194" data-name="Rectángulo 194" width="0.953" height="69.041" transform="translate(12.391 178.091)" fill="#92ca34"/>
              <rect id="Rectángulo_195" data-name="Rectángulo 195" width="0.953" height="69.041" transform="translate(13.344 178.091)" fill="#92ca35"/>
              <rect id="Rectángulo_196" data-name="Rectángulo 196" width="0.953" height="69.041" transform="translate(14.297 178.091)" fill="#91ca36"/>
              <rect id="Rectángulo_197" data-name="Rectángulo 197" width="0.953" height="69.041" transform="translate(15.25 178.091)" fill="#91ca37"/>
              <rect id="Rectángulo_198" data-name="Rectángulo 198" width="0.953" height="69.041" transform="translate(16.203 178.091)" fill="#90ca38"/>
              <rect id="Rectángulo_199" data-name="Rectángulo 199" width="0.953" height="69.041" transform="translate(17.157 178.091)" fill="#90c939"/>
              <rect id="Rectángulo_200" data-name="Rectángulo 200" width="0.953" height="69.041" transform="translate(18.11 178.091)" fill="#8fc93a"/>
              <rect id="Rectángulo_201" data-name="Rectángulo 201" width="0.953" height="69.041" transform="translate(19.063 178.091)" fill="#8fc93b"/>
              <rect id="Rectángulo_202" data-name="Rectángulo 202" width="0.953" height="69.041" transform="translate(20.016 178.091)" fill="#8fc93c"/>
              <rect id="Rectángulo_203" data-name="Rectángulo 203" width="0.953" height="69.041" transform="translate(20.969 178.091)" fill="#8ec93d"/>
              <rect id="Rectángulo_204" data-name="Rectángulo 204" width="0.953" height="69.041" transform="translate(21.922 178.091)" fill="#8ec93e"/>
              <rect id="Rectángulo_205" data-name="Rectángulo 205" width="0.953" height="69.041" transform="translate(22.875 178.091)" fill="#8dc93f"/>
              <rect id="Rectángulo_206" data-name="Rectángulo 206" width="0.953" height="69.041" transform="translate(23.829 178.091)" fill="#8dc940"/>
              <rect id="Rectángulo_207" data-name="Rectángulo 207" width="0.953" height="69.041" transform="translate(24.782 178.091)" fill="#8cc841"/>
              <rect id="Rectángulo_208" data-name="Rectángulo 208" width="0.953" height="69.041" transform="translate(25.735 178.091)" fill="#8cc842"/>
              <rect id="Rectángulo_209" data-name="Rectángulo 209" width="0.953" height="69.041" transform="translate(26.688 178.091)" fill="#8bc843"/>
              <rect id="Rectángulo_210" data-name="Rectángulo 210" width="0.953" height="69.041" transform="translate(27.641 178.091)" fill="#8bc844"/>
              <rect id="Rectángulo_211" data-name="Rectángulo 211" width="0.953" height="69.041" transform="translate(28.594 178.091)" fill="#8ac845"/>
              <rect id="Rectángulo_212" data-name="Rectángulo 212" width="0.953" height="69.041" transform="translate(29.547 178.091)" fill="#8ac846"/>
              <rect id="Rectángulo_213" data-name="Rectángulo 213" width="0.953" height="69.041" transform="translate(30.501 178.091)" fill="#8ac847"/>
              <rect id="Rectángulo_214" data-name="Rectángulo 214" width="0.953" height="69.041" transform="translate(31.454 178.091)" fill="#89c748"/>
              <rect id="Rectángulo_215" data-name="Rectángulo 215" width="0.953" height="69.041" transform="translate(32.407 178.091)" fill="#89c749"/>
              <rect id="Rectángulo_216" data-name="Rectángulo 216" width="0.953" height="69.041" transform="translate(33.36 178.091)" fill="#88c74a"/>
              <rect id="Rectángulo_217" data-name="Rectángulo 217" width="0.953" height="69.041" transform="translate(34.313 178.091)" fill="#88c74b"/>
              <rect id="Rectángulo_218" data-name="Rectángulo 218" width="0.953" height="69.041" transform="translate(35.266 178.091)" fill="#87c74c"/>
              <rect id="Rectángulo_219" data-name="Rectángulo 219" width="0.953" height="69.041" transform="translate(36.219 178.091)" fill="#87c74d"/>
              <rect id="Rectángulo_220" data-name="Rectángulo 220" width="0.953" height="69.041" transform="translate(37.173 178.091)" fill="#86c74e"/>
              <rect id="Rectángulo_221" data-name="Rectángulo 221" width="0.953" height="69.041" transform="translate(38.126 178.091)" fill="#86c64f"/>
              <rect id="Rectángulo_222" data-name="Rectángulo 222" width="0.953" height="69.041" transform="translate(39.079 178.091)" fill="#85c650"/>
              <rect id="Rectángulo_223" data-name="Rectángulo 223" width="0.953" height="69.041" transform="translate(40.032 178.091)" fill="#85c651"/>
              <rect id="Rectángulo_224" data-name="Rectángulo 224" width="0.953" height="69.041" transform="translate(40.985 178.091)" fill="#85c652"/>
              <rect id="Rectángulo_225" data-name="Rectángulo 225" width="0.953" height="69.041" transform="translate(41.938 178.091)" fill="#84c653"/>
              <rect id="Rectángulo_226" data-name="Rectángulo 226" width="0.953" height="69.041" transform="translate(42.891 178.091)" fill="#84c654"/>
              <rect id="Rectángulo_227" data-name="Rectángulo 227" width="0.953" height="69.041" transform="translate(43.845 178.091)" fill="#83c655"/>
              <rect id="Rectángulo_228" data-name="Rectángulo 228" width="0.953" height="69.041" transform="translate(44.798 178.091)" fill="#83c556"/>
              <rect id="Rectángulo_229" data-name="Rectángulo 229" width="0.953" height="69.041" transform="translate(45.751 178.091)" fill="#82c557"/>
              <rect id="Rectángulo_230" data-name="Rectángulo 230" width="0.953" height="69.041" transform="translate(46.704 178.091)" fill="#82c558"/>
              <rect id="Rectángulo_231" data-name="Rectángulo 231" width="0.953" height="69.041" transform="translate(47.657 178.091)" fill="#81c559"/>
              <rect id="Rectángulo_232" data-name="Rectángulo 232" width="0.953" height="69.041" transform="translate(48.61 178.091)" fill="#81c55a"/>
              <rect id="Rectángulo_233" data-name="Rectángulo 233" width="0.953" height="69.041" transform="translate(49.563 178.091)" fill="#81c55b"/>
              <rect id="Rectángulo_234" data-name="Rectángulo 234" width="0.953" height="69.041" transform="translate(50.517 178.091)" fill="#80c55c"/>
              <rect id="Rectángulo_235" data-name="Rectángulo 235" width="0.953" height="69.041" transform="translate(51.47 178.091)" fill="#80c45d"/>
              <rect id="Rectángulo_236" data-name="Rectángulo 236" width="0.953" height="69.041" transform="translate(52.423 178.091)" fill="#7fc45e"/>
              <rect id="Rectángulo_237" data-name="Rectángulo 237" width="0.953" height="69.041" transform="translate(53.376 178.091)" fill="#7fc45f"/>
              <rect id="Rectángulo_238" data-name="Rectángulo 238" width="0.953" height="69.041" transform="translate(54.329 178.091)" fill="#7ec460"/>
              <rect id="Rectángulo_239" data-name="Rectángulo 239" width="0.953" height="69.041" transform="translate(55.282 178.091)" fill="#7ec461"/>
              <rect id="Rectángulo_240" data-name="Rectángulo 240" width="0.953" height="69.041" transform="translate(56.235 178.091)" fill="#7dc462"/>
              <rect id="Rectángulo_241" data-name="Rectángulo 241" width="0.953" height="69.041" transform="translate(57.188 178.091)" fill="#7dc463"/>
              <rect id="Rectángulo_242" data-name="Rectángulo 242" width="0.953" height="69.041" transform="translate(58.142 178.091)" fill="#7cc364"/>
              <rect id="Rectángulo_243" data-name="Rectángulo 243" width="0.953" height="69.041" transform="translate(59.095 178.091)" fill="#7cc365"/>
              <rect id="Rectángulo_244" data-name="Rectángulo 244" width="0.953" height="69.041" transform="translate(60.048 178.091)" fill="#7cc366"/>
              <rect id="Rectángulo_245" data-name="Rectángulo 245" width="0.953" height="69.041" transform="translate(61.001 178.091)" fill="#7bc367"/>
              <rect id="Rectángulo_246" data-name="Rectángulo 246" width="0.953" height="69.041" transform="translate(61.954 178.091)" fill="#7bc368"/>
              <rect id="Rectángulo_247" data-name="Rectángulo 247" width="0.953" height="69.041" transform="translate(62.907 178.091)" fill="#7ac369"/>
              <rect id="Rectángulo_248" data-name="Rectángulo 248" width="0.953" height="69.041" transform="translate(63.86 178.091)" fill="#7ac36a"/>
              <rect id="Rectángulo_249" data-name="Rectángulo 249" width="0.953" height="69.041" transform="translate(64.814 178.091)" fill="#79c26b"/>
              <rect id="Rectángulo_250" data-name="Rectángulo 250" width="0.953" height="69.041" transform="translate(65.767 178.091)" fill="#79c26c"/>
              <rect id="Rectángulo_251" data-name="Rectángulo 251" width="0.953" height="69.041" transform="translate(66.72 178.091)" fill="#78c26d"/>
              <rect id="Rectángulo_252" data-name="Rectángulo 252" width="0.953" height="69.041" transform="translate(67.673 178.091)" fill="#78c26e"/>
              <rect id="Rectángulo_253" data-name="Rectángulo 253" width="0.953" height="69.041" transform="translate(68.626 178.091)" fill="#77c26f"/>
              <rect id="Rectángulo_254" data-name="Rectángulo 254" width="0.953" height="69.041" transform="translate(69.579 178.091)" fill="#77c270"/>
              <rect id="Rectángulo_255" data-name="Rectángulo 255" width="0.953" height="69.041" transform="translate(70.532 178.091)" fill="#77c271"/>
              <rect id="Rectángulo_256" data-name="Rectángulo 256" width="0.953" height="69.041" transform="translate(71.486 178.091)" fill="#76c272"/>
              <rect id="Rectángulo_257" data-name="Rectángulo 257" width="0.953" height="69.041" transform="translate(72.439 178.091)" fill="#76c173"/>
              <rect id="Rectángulo_258" data-name="Rectángulo 258" width="0.953" height="69.041" transform="translate(73.392 178.091)" fill="#75c174"/>
              <rect id="Rectángulo_259" data-name="Rectángulo 259" width="0.953" height="69.041" transform="translate(74.345 178.091)" fill="#75c175"/>
              <rect id="Rectángulo_260" data-name="Rectángulo 260" width="0.953" height="69.041" transform="translate(75.298 178.091)" fill="#74c176"/>
              <rect id="Rectángulo_261" data-name="Rectángulo 261" width="0.953" height="69.041" transform="translate(76.251 178.091)" fill="#74c177"/>
              <rect id="Rectángulo_262" data-name="Rectángulo 262" width="0.953" height="69.041" transform="translate(77.204 178.091)" fill="#73c178"/>
              <rect id="Rectángulo_263" data-name="Rectángulo 263" width="0.953" height="69.041" transform="translate(78.158 178.091)" fill="#73c179"/>
              <rect id="Rectángulo_264" data-name="Rectángulo 264" width="0.953" height="69.041" transform="translate(79.111 178.091)" fill="#73c07a"/>
              <rect id="Rectángulo_265" data-name="Rectángulo 265" width="0.953" height="69.041" transform="translate(80.064 178.091)" fill="#72c07b"/>
              <rect id="Rectángulo_266" data-name="Rectángulo 266" width="0.953" height="69.041" transform="translate(81.017 178.091)" fill="#72c07c"/>
              <rect id="Rectángulo_267" data-name="Rectángulo 267" width="0.953" height="69.041" transform="translate(81.97 178.091)" fill="#71c07d"/>
              <rect id="Rectángulo_268" data-name="Rectángulo 268" width="0.953" height="69.041" transform="translate(82.923 178.091)" fill="#71c07e"/>
              <rect id="Rectángulo_269" data-name="Rectángulo 269" width="0.953" height="69.041" transform="translate(83.876 178.091)" fill="#70c07f"/>
              <rect id="Rectángulo_270" data-name="Rectángulo 270" width="0.953" height="69.041" transform="translate(84.83 178.091)" fill="#70c080"/>
              <rect id="Rectángulo_271" data-name="Rectángulo 271" width="0.953" height="69.041" transform="translate(85.783 178.091)" fill="#6fbf81"/>
              <rect id="Rectángulo_272" data-name="Rectángulo 272" width="0.953" height="69.041" transform="translate(86.736 178.091)" fill="#6fbf82"/>
              <rect id="Rectángulo_273" data-name="Rectángulo 273" width="0.953" height="69.041" transform="translate(87.689 178.091)" fill="#6ebf83"/>
              <rect id="Rectángulo_274" data-name="Rectángulo 274" width="0.953" height="69.041" transform="translate(88.642 178.091)" fill="#6ebf85"/>
              <rect id="Rectángulo_275" data-name="Rectángulo 275" width="0.953" height="69.041" transform="translate(89.595 178.091)" fill="#6ebf86"/>
              <rect id="Rectángulo_276" data-name="Rectángulo 276" width="0.953" height="69.041" transform="translate(90.548 178.091)" fill="#6dbf87"/>
              <rect id="Rectángulo_277" data-name="Rectángulo 277" width="0.953" height="69.041" transform="translate(91.502 178.091)" fill="#6dbf88"/>
              <rect id="Rectángulo_278" data-name="Rectángulo 278" width="0.953" height="69.041" transform="translate(92.455 178.091)" fill="#6cbe89"/>
              <rect id="Rectángulo_279" data-name="Rectángulo 279" width="0.953" height="69.041" transform="translate(93.408 178.091)" fill="#6cbe8a"/>
              <rect id="Rectángulo_280" data-name="Rectángulo 280" width="0.953" height="69.041" transform="translate(94.361 178.091)" fill="#6bbe8b"/>
              <rect id="Rectángulo_281" data-name="Rectángulo 281" width="0.953" height="69.041" transform="translate(95.314 178.091)" fill="#6bbe8c"/>
              <rect id="Rectángulo_282" data-name="Rectángulo 282" width="0.953" height="69.041" transform="translate(96.267 178.091)" fill="#6abe8d"/>
              <rect id="Rectángulo_283" data-name="Rectángulo 283" width="0.953" height="69.041" transform="translate(97.22 178.091)" fill="#6abe8e"/>
              <rect id="Rectángulo_284" data-name="Rectángulo 284" width="0.953" height="69.041" transform="translate(98.174 178.091)" fill="#69be8f"/>
              <rect id="Rectángulo_285" data-name="Rectángulo 285" width="0.953" height="69.041" transform="translate(99.127 178.091)" fill="#69bd90"/>
              <rect id="Rectángulo_286" data-name="Rectángulo 286" width="0.953" height="69.041" transform="translate(100.08 178.091)" fill="#69bd91"/>
              <rect id="Rectángulo_287" data-name="Rectángulo 287" width="0.953" height="69.041" transform="translate(101.033 178.091)" fill="#68bd92"/>
              <rect id="Rectángulo_288" data-name="Rectángulo 288" width="0.953" height="69.041" transform="translate(101.986 178.091)" fill="#68bd93"/>
              <rect id="Rectángulo_289" data-name="Rectángulo 289" width="0.953" height="69.041" transform="translate(102.939 178.091)" fill="#67bd94"/>
              <rect id="Rectángulo_290" data-name="Rectángulo 290" width="0.953" height="69.041" transform="translate(103.892 178.091)" fill="#67bd95"/>
              <rect id="Rectángulo_291" data-name="Rectángulo 291" width="0.953" height="69.041" transform="translate(104.846 178.091)" fill="#66bd96"/>
              <rect id="Rectángulo_292" data-name="Rectángulo 292" width="0.953" height="69.041" transform="translate(105.799 178.091)" fill="#66bc97"/>
              <rect id="Rectángulo_293" data-name="Rectángulo 293" width="0.953" height="69.041" transform="translate(106.752 178.091)" fill="#65bc98"/>
              <rect id="Rectángulo_294" data-name="Rectángulo 294" width="0.953" height="69.041" transform="translate(107.705 178.091)" fill="#65bc99"/>
              <rect id="Rectángulo_295" data-name="Rectángulo 295" width="0.953" height="69.041" transform="translate(108.658 178.091)" fill="#65bc9a"/>
              <rect id="Rectángulo_296" data-name="Rectángulo 296" width="0.953" height="69.041" transform="translate(109.611 178.091)" fill="#64bc9b"/>
              <rect id="Rectángulo_297" data-name="Rectángulo 297" width="0.953" height="69.041" transform="translate(110.564 178.091)" fill="#64bc9c"/>
              <rect id="Rectángulo_298" data-name="Rectángulo 298" width="0.953" height="69.041" transform="translate(111.518 178.091)" fill="#63bc9d"/>
              <rect id="Rectángulo_299" data-name="Rectángulo 299" width="0.953" height="69.041" transform="translate(112.471 178.091)" fill="#63bc9e"/>
              <rect id="Rectángulo_300" data-name="Rectángulo 300" width="0.953" height="69.041" transform="translate(113.424 178.091)" fill="#62bb9f"/>
              <rect id="Rectángulo_301" data-name="Rectángulo 301" width="0.953" height="69.041" transform="translate(114.377 178.091)" fill="#62bba0"/>
              <rect id="Rectángulo_302" data-name="Rectángulo 302" width="0.953" height="69.041" transform="translate(115.33 178.091)" fill="#61bba1"/>
              <rect id="Rectángulo_303" data-name="Rectángulo 303" width="0.953" height="69.041" transform="translate(116.283 178.091)" fill="#61bba2"/>
              <rect id="Rectángulo_304" data-name="Rectángulo 304" width="0.953" height="69.041" transform="translate(117.236 178.091)" fill="#60bba3"/>
              <rect id="Rectángulo_305" data-name="Rectángulo 305" width="0.953" height="69.041" transform="translate(118.19 178.091)" fill="#60bba4"/>
              <rect id="Rectángulo_306" data-name="Rectángulo 306" width="0.953" height="69.041" transform="translate(119.143 178.091)" fill="#60bba5"/>
              <rect id="Rectángulo_307" data-name="Rectángulo 307" width="0.953" height="69.041" transform="translate(120.096 178.091)" fill="#5fbaa6"/>
              <rect id="Rectángulo_308" data-name="Rectángulo 308" width="0.953" height="69.041" transform="translate(121.049 178.091)" fill="#5fbaa7"/>
              <rect id="Rectángulo_309" data-name="Rectángulo 309" width="0.953" height="69.041" transform="translate(122.002 178.091)" fill="#5ebaa8"/>
              <rect id="Rectángulo_310" data-name="Rectángulo 310" width="0.953" height="69.041" transform="translate(122.955 178.091)" fill="#5ebaa9"/>
              <rect id="Rectángulo_311" data-name="Rectángulo 311" width="0.953" height="69.041" transform="translate(123.908 178.091)" fill="#5dbaaa"/>
              <rect id="Rectángulo_312" data-name="Rectángulo 312" width="0.953" height="69.041" transform="translate(124.862 178.091)" fill="#5dbaab"/>
              <rect id="Rectángulo_313" data-name="Rectángulo 313" width="0.953" height="69.041" transform="translate(125.815 178.091)" fill="#5cbaac"/>
              <rect id="Rectángulo_314" data-name="Rectángulo 314" width="0.953" height="69.041" transform="translate(126.768 178.091)" fill="#5cb9ad"/>
              <rect id="Rectángulo_315" data-name="Rectángulo 315" width="0.953" height="69.041" transform="translate(127.721 178.091)" fill="#5bb9ae"/>
              <rect id="Rectángulo_316" data-name="Rectángulo 316" width="0.953" height="69.041" transform="translate(128.674 178.091)" fill="#5bb9af"/>
              <rect id="Rectángulo_317" data-name="Rectángulo 317" width="0.953" height="69.041" transform="translate(129.627 178.091)" fill="#5bb9b0"/>
              <rect id="Rectángulo_318" data-name="Rectángulo 318" width="0.953" height="69.041" transform="translate(130.58 178.091)" fill="#5ab9b1"/>
              <rect id="Rectángulo_319" data-name="Rectángulo 319" width="0.953" height="69.041" transform="translate(131.534 178.091)" fill="#5ab9b2"/>
              <rect id="Rectángulo_320" data-name="Rectángulo 320" width="0.953" height="69.041" transform="translate(132.487 178.091)" fill="#59b9b3"/>
              <rect id="Rectángulo_321" data-name="Rectángulo 321" width="0.953" height="69.041" transform="translate(133.44 178.091)" fill="#59b8b4"/>
              <rect id="Rectángulo_322" data-name="Rectángulo 322" width="0.953" height="69.041" transform="translate(134.393 178.091)" fill="#58b8b5"/>
              <rect id="Rectángulo_323" data-name="Rectángulo 323" width="0.953" height="69.041" transform="translate(135.346 178.091)" fill="#58b8b6"/>
              <rect id="Rectángulo_324" data-name="Rectángulo 324" width="0.953" height="69.041" transform="translate(136.299 178.091)" fill="#57b8b7"/>
              <rect id="Rectángulo_325" data-name="Rectángulo 325" width="0.953" height="69.041" transform="translate(137.252 178.091)" fill="#57b8b8"/>
              <rect id="Rectángulo_326" data-name="Rectángulo 326" width="0.953" height="69.041" transform="translate(138.206 178.091)" fill="#57b8b9"/>
              <rect id="Rectángulo_327" data-name="Rectángulo 327" width="0.953" height="69.041" transform="translate(139.159 178.091)" fill="#56b8ba"/>
              <rect id="Rectángulo_328" data-name="Rectángulo 328" width="0.953" height="69.041" transform="translate(140.112 178.091)" fill="#56b7bb"/>
              <rect id="Rectángulo_329" data-name="Rectángulo 329" width="0.953" height="69.041" transform="translate(141.065 178.091)" fill="#55b7bc"/>
              <rect id="Rectángulo_330" data-name="Rectángulo 330" width="0.953" height="69.041" transform="translate(142.018 178.091)" fill="#55b7bd"/>
              <rect id="Rectángulo_331" data-name="Rectángulo 331" width="0.953" height="69.041" transform="translate(142.971 178.091)" fill="#54b7be"/>
              <rect id="Rectángulo_332" data-name="Rectángulo 332" width="0.953" height="69.041" transform="translate(143.924 178.091)" fill="#54b7bf"/>
              <rect id="Rectángulo_333" data-name="Rectángulo 333" width="0.953" height="69.041" transform="translate(144.877 178.091)" fill="#53b7c0"/>
              <rect id="Rectángulo_334" data-name="Rectángulo 334" width="0.953" height="69.041" transform="translate(145.831 178.091)" fill="#53b7c1"/>
              <rect id="Rectángulo_335" data-name="Rectángulo 335" width="0.953" height="69.041" transform="translate(146.784 178.091)" fill="#52b6c2"/>
              <rect id="Rectángulo_336" data-name="Rectángulo 336" width="0.953" height="69.041" transform="translate(147.737 178.091)" fill="#52b6c3"/>
              <rect id="Rectángulo_337" data-name="Rectángulo 337" width="0.953" height="69.041" transform="translate(148.69 178.091)" fill="#52b6c4"/>
              <rect id="Rectángulo_338" data-name="Rectángulo 338" width="0.953" height="69.041" transform="translate(149.643 178.091)" fill="#51b6c5"/>
              <rect id="Rectángulo_339" data-name="Rectángulo 339" width="0.953" height="69.041" transform="translate(150.596 178.091)" fill="#51b6c6"/>
              <rect id="Rectángulo_340" data-name="Rectángulo 340" width="0.953" height="69.041" transform="translate(151.55 178.091)" fill="#50b6c7"/>
              <rect id="Rectángulo_341" data-name="Rectángulo 341" width="0.953" height="69.041" transform="translate(152.503 178.091)" fill="#50b6c8"/>
              <rect id="Rectángulo_342" data-name="Rectángulo 342" width="0.953" height="69.041" transform="translate(153.456 178.091)" fill="#4fb5c9"/>
              <rect id="Rectángulo_343" data-name="Rectángulo 343" width="0.953" height="69.041" transform="translate(154.409 178.091)" fill="#4fb5ca"/>
              <rect id="Rectángulo_344" data-name="Rectángulo 344" width="0.953" height="69.041" transform="translate(155.362 178.091)" fill="#4eb5cb"/>
              <rect id="Rectángulo_345" data-name="Rectángulo 345" width="0.953" height="69.041" transform="translate(156.315 178.091)" fill="#4eb5cc"/>
              <rect id="Rectángulo_346" data-name="Rectángulo 346" width="0.953" height="69.041" transform="translate(157.268 178.091)" fill="#4db5cd"/>
              <rect id="Rectángulo_347" data-name="Rectángulo 347" width="0.953" height="69.041" transform="translate(158.221 178.091)" fill="#4db5ce"/>
              <rect id="Rectángulo_348" data-name="Rectángulo 348" width="0.953" height="69.041" transform="translate(159.175 178.091)" fill="#4db5cf"/>
              <rect id="Rectángulo_349" data-name="Rectángulo 349" width="0.953" height="69.041" transform="translate(160.128 178.091)" fill="#4cb5d0"/>
              <rect id="Rectángulo_350" data-name="Rectángulo 350" width="0.953" height="69.041" transform="translate(161.081 178.091)" fill="#4cb4d1"/>
              <rect id="Rectángulo_351" data-name="Rectángulo 351" width="0.953" height="69.041" transform="translate(162.034 178.091)" fill="#4bb4d2"/>
              <rect id="Rectángulo_352" data-name="Rectángulo 352" width="0.953" height="69.041" transform="translate(162.987 178.091)" fill="#4bb4d3"/>
              <rect id="Rectángulo_353" data-name="Rectángulo 353" width="0.953" height="69.041" transform="translate(163.94 178.091)" fill="#4ab4d4"/>
              <rect id="Rectángulo_354" data-name="Rectángulo 354" width="0.953" height="69.041" transform="translate(164.893 178.091)" fill="#4ab4d5"/>
              <rect id="Rectángulo_355" data-name="Rectángulo 355" width="0.953" height="69.041" transform="translate(165.847 178.091)" fill="#49b4d6"/>
              <rect id="Rectángulo_356" data-name="Rectángulo 356" width="0.953" height="69.041" transform="translate(166.8 178.091)" fill="#49b4d7"/>
              <rect id="Rectángulo_357" data-name="Rectángulo 357" width="0.953" height="69.041" transform="translate(167.753 178.091)" fill="#49b3d8"/>
              <rect id="Rectángulo_358" data-name="Rectángulo 358" width="0.953" height="69.041" transform="translate(168.706 178.091)" fill="#48b3d9"/>
              <rect id="Rectángulo_359" data-name="Rectángulo 359" width="0.953" height="69.041" transform="translate(169.659 178.091)" fill="#48b3da"/>
              <rect id="Rectángulo_360" data-name="Rectángulo 360" width="0.953" height="69.041" transform="translate(170.612 178.091)" fill="#47b3db"/>
              <rect id="Rectángulo_361" data-name="Rectángulo 361" width="0.953" height="69.041" transform="translate(171.565 178.091)" fill="#47b3dc"/>
              <rect id="Rectángulo_362" data-name="Rectángulo 362" width="0.953" height="69.041" transform="translate(172.519 178.091)" fill="#46b3dd"/>
              <rect id="Rectángulo_363" data-name="Rectángulo 363" width="0.953" height="69.041" transform="translate(173.472 178.091)" fill="#46b3de"/>
              <rect id="Rectángulo_364" data-name="Rectángulo 364" width="0.953" height="69.041" transform="translate(174.425 178.091)" fill="#45b2df"/>
              <rect id="Rectángulo_365" data-name="Rectángulo 365" width="0.953" height="69.041" transform="translate(175.378 178.091)" fill="#45b2e0"/>
              <rect id="Rectángulo_366" data-name="Rectángulo 366" width="0.953" height="69.041" transform="translate(176.331 178.091)" fill="#44b2e1"/>
              <rect id="Rectángulo_367" data-name="Rectángulo 367" width="0.953" height="69.041" transform="translate(177.284 178.091)" fill="#44b2e2"/>
              <path id="Trazado_56" data-name="Trazado 56" d="M288.22,514.872v0Z" transform="translate(-109.983 -267.739)" fill="#44b2e2"/>
            </g>
          </g>
          <path id="Trazado_58" data-name="Trazado 58" d="M407.111,445.58l-.234.908a92.759,92.759,0,0,1-179.642,0L227,445.58h7.551l.146.527a85.452,85.452,0,0,0,164.745,0l.146-.527Z" transform="translate(-227 -265.382)" fill="url(#linear-gradient)"/>
          <path id="Trazado_59" data-name="Trazado 59" d="M398.937,504.8h-8.019l-.205-.41c-9.98-21.16-27.365-38.633-42.73-54.027l-.5-.5C334.4,436.75,322.052,424.4,314.941,410.79l-1.083-2.078-1.083,2.078c-7.083,13.668-19.492,26.077-32.574,39.218l-.351.351c-15.453,15.365-32.955,32.808-42.935,54.027l-.2.41H228.69l.439-1.024c10.214-23.326,28.945-41.969,45.452-58.417,16.156-16.155,31.345-31.345,35.794-48.057l3.512-13.287,3.571,13.258c4.332,16.595,19.463,31.726,35.443,47.764l.176.117c16.478,16.507,35.179,35.208,45.423,58.622Z" transform="translate(-223.744 -384.01)" fill="url(#linear-gradient)"/>
        </g>
      </g>
    </g>
  </g>
</svg>
